<svg xmlns="http://www.w3.org/2000/svg" xmlns:xlink="http://www.w3.org/1999/xlink" width="1536" zoomAndPan="magnify" viewBox="0 0 1152 647.999998" height="864" preserveAspectRatio="xMidYMid meet" version="1.0"><defs><g/><clipPath id="0f68b69102"><path d="M 116 286 L 230 286 L 230 401 L 116 401 Z M 116 286 " clip-rule="nonzero"/></clipPath><clipPath id="40c34392cf"><path d="M 144.492188 439.84375 L 76.707031 372.058594 L 200.59375 248.171875 L 268.378906 315.957031 Z M 144.492188 439.84375 " clip-rule="nonzero"/></clipPath><clipPath id="1d3bb6e929"><path d="M 76.339844 371.691406 L 144.128906 439.480469 L 268.015625 315.59375 L 200.226562 247.804688 Z M 76.339844 371.691406 " clip-rule="nonzero"/></clipPath><clipPath id="2553b30285"><path d="M 9.160156 157.019531 L 105.023438 157.019531 L 105.023438 398.335938 L 9.160156 398.335938 Z M 9.160156 157.019531 " clip-rule="nonzero"/></clipPath></defs><g clip-path="url(#0f68b69102)"><g clip-path="url(#40c34392cf)"><g clip-path="url(#1d3bb6e929)"><path fill="#0d81a3" d="M 201.65625 372.070312 C 232.851562 340.875 229.683594 287.136719 229.683594 287.136719 C 229.683594 287.136719 175.289062 283.308594 144.09375 314.503906 C 112.898438 345.703125 116.722656 400.101562 116.722656 400.101562 C 116.71875 400.101562 170.460938 403.265625 201.65625 372.070312 " fill-opacity="1" fill-rule="nonzero"/></g></g></g><g clip-path="url(#2553b30285)"><path fill="#0d81a3" d="M 9.160156 157.800781 L 9.160156 302.046875 C 9.160156 355.195312 52.242188 398.277344 105.390625 398.277344 L 105.390625 254.03125 C 105.390625 200.882812 62.304688 157.800781 9.160156 157.800781 Z M 9.160156 157.800781 " fill-opacity="1" fill-rule="nonzero"/></g><g fill="#0d81a3" fill-opacity="1"><g transform="translate(276.660352, 393.43542)"><g><path d="M 19.125 0 L 19.125 -131.265625 L 34.5 -131.265625 L 86.078125 -53.453125 L 137.265625 -131.265625 L 152.65625 -131.265625 L 152.65625 0 L 136.140625 0 L 136.140625 -100.328125 L 92.640625 -34.875 L 79.140625 -34.875 L 35.625 -100.515625 L 35.625 0 Z M 19.125 0 "/></g></g></g><g fill="#0d81a3" fill-opacity="1"><g transform="translate(439.967097, 393.43542)"><g><path d="M 61.328125 2.4375 C 51.191406 2.4375 42.25 0.25 34.5 -4.125 C 26.75 -8.5 20.6875 -14.5625 16.3125 -22.3125 C 11.9375 -30.0625 9.75 -38.878906 9.75 -48.765625 C 9.75 -58.765625 11.9375 -67.578125 16.3125 -75.203125 C 20.6875 -82.828125 26.75 -88.828125 34.5 -93.203125 C 42.25 -97.578125 51.191406 -99.765625 61.328125 -99.765625 C 71.453125 -99.765625 80.390625 -97.578125 88.140625 -93.203125 C 95.890625 -88.828125 101.953125 -82.828125 106.328125 -75.203125 C 110.703125 -67.578125 112.890625 -58.765625 112.890625 -48.765625 C 112.890625 -38.878906 110.703125 -30.0625 106.328125 -22.3125 C 101.953125 -14.5625 95.890625 -8.5 88.140625 -4.125 C 80.390625 0.25 71.453125 2.4375 61.328125 2.4375 Z M 25.5 -48.765625 C 25.5 -41.628906 27.03125 -35.34375 30.09375 -29.90625 C 33.15625 -24.46875 37.375 -20.25 42.75 -17.25 C 48.132812 -14.25 54.328125 -12.75 61.328125 -12.75 C 68.328125 -12.75 74.515625 -14.25 79.890625 -17.25 C 85.265625 -20.25 89.484375 -24.46875 92.546875 -29.90625 C 95.609375 -35.34375 97.140625 -41.628906 97.140625 -48.765625 C 97.140625 -55.890625 95.609375 -62.140625 92.546875 -67.515625 C 89.484375 -72.890625 85.265625 -77.109375 79.890625 -80.171875 C 74.515625 -83.234375 68.328125 -84.765625 61.328125 -84.765625 C 54.328125 -84.765625 48.132812 -83.234375 42.75 -80.171875 C 37.375 -77.109375 33.15625 -72.890625 30.09375 -67.515625 C 27.03125 -62.140625 25.5 -55.890625 25.5 -48.765625 Z M 25.5 -48.765625 "/></g></g></g><g fill="#0d81a3" fill-opacity="1"><g transform="translate(554.149952, 393.43542)"><g><path d="M 17.4375 0 L 17.4375 -97.328125 L 30.375 -97.328125 L 32.0625 -83.078125 C 36.3125 -88.953125 41.46875 -93.203125 47.53125 -95.828125 C 53.601562 -98.453125 59.890625 -99.765625 66.390625 -99.765625 C 79.390625 -99.765625 89.515625 -95.640625 96.765625 -87.390625 C 104.015625 -79.140625 107.640625 -68.078125 107.640625 -54.203125 L 107.640625 0 L 91.890625 0 L 91.890625 -52.703125 C 91.890625 -62.578125 89.421875 -70.390625 84.484375 -76.140625 C 79.546875 -81.890625 72.828125 -84.765625 64.328125 -84.765625 C 58.328125 -84.765625 52.976562 -83.296875 48.28125 -80.359375 C 43.59375 -77.421875 39.90625 -73.265625 37.21875 -67.890625 C 34.53125 -62.515625 33.1875 -56.265625 33.1875 -49.140625 L 33.1875 0 Z M 17.4375 0 "/></g></g></g><g fill="#0d81a3" fill-opacity="1"><g transform="translate(668.895263, 393.43542)"><g><path d="M 49.328125 1.5 C 37.566406 1.5 28.375 -1.15625 21.75 -6.46875 C 15.125 -11.78125 11.8125 -19 11.8125 -28.125 C 11.8125 -37 14.875 -44.0625 21 -49.3125 C 27.125 -54.570312 35.25 -57.203125 45.375 -57.203125 L 85.140625 -57.203125 L 85.140625 -60.765625 C 85.140625 -68.390625 82.765625 -74.359375 78.015625 -78.671875 C 73.265625 -82.984375 66.765625 -85.140625 58.515625 -85.140625 C 52.265625 -85.140625 46.820312 -83.734375 42.1875 -80.921875 C 37.5625 -78.109375 34.4375 -74.328125 32.8125 -69.578125 L 16.875 -69.578125 C 19 -78.953125 23.78125 -86.328125 31.21875 -91.703125 C 38.65625 -97.078125 47.691406 -99.765625 58.328125 -99.765625 C 66.828125 -99.765625 74.265625 -98.171875 80.640625 -94.984375 C 87.015625 -91.796875 91.984375 -87.359375 95.546875 -81.671875 C 99.109375 -75.984375 100.890625 -69.390625 100.890625 -61.890625 L 100.890625 0 L 87.953125 0 L 86.265625 -13.5 C 77.390625 -3.5 65.078125 1.5 49.328125 1.5 Z M 27.5625 -28.3125 C 27.5625 -23.5625 29.5625 -19.75 33.5625 -16.875 C 37.5625 -14 43.003906 -12.5625 49.890625 -12.5625 C 56.640625 -12.5625 62.640625 -13.875 67.890625 -16.5 C 73.140625 -19.125 77.328125 -22.75 80.453125 -27.375 C 83.578125 -32 85.203125 -37.3125 85.328125 -43.3125 L 45.9375 -43.3125 C 40.5625 -43.3125 36.15625 -41.96875 32.71875 -39.28125 C 29.28125 -36.59375 27.5625 -32.9375 27.5625 -28.3125 Z M 27.5625 -28.3125 "/></g></g></g><g fill="#0d81a3" fill-opacity="1"><g transform="translate(776.703291, 393.43542)"><g><path d="M 70.515625 2.4375 C 62.890625 2.4375 55.851562 0.96875 49.40625 -1.96875 C 42.96875 -4.90625 37.5625 -8.875 33.1875 -13.875 L 33.1875 37.5 L 17.4375 37.5 L 17.4375 -97.328125 L 30.375 -97.328125 L 32.25 -82.328125 C 36.625 -87.828125 42.09375 -92.109375 48.65625 -95.171875 C 55.226562 -98.234375 62.515625 -99.765625 70.515625 -99.765625 C 80.140625 -99.765625 88.671875 -97.546875 96.109375 -93.109375 C 103.546875 -88.671875 109.390625 -82.640625 113.640625 -75.015625 C 117.890625 -67.390625 120.015625 -58.640625 120.015625 -48.765625 C 120.015625 -38.878906 117.890625 -30.09375 113.640625 -22.40625 C 109.390625 -14.71875 103.546875 -8.65625 96.109375 -4.21875 C 88.671875 0.21875 80.140625 2.4375 70.515625 2.4375 Z M 32.625 -48.765625 C 32.625 -41.753906 34.15625 -35.53125 37.21875 -30.09375 C 40.28125 -24.65625 44.5 -20.40625 49.875 -17.34375 C 55.257812 -14.28125 61.453125 -12.75 68.453125 -12.75 C 75.578125 -12.75 81.828125 -14.28125 87.203125 -17.34375 C 92.578125 -20.40625 96.765625 -24.65625 99.765625 -30.09375 C 102.765625 -35.53125 104.265625 -41.753906 104.265625 -48.765625 C 104.265625 -55.765625 102.765625 -61.984375 99.765625 -67.421875 C 96.765625 -72.859375 92.578125 -77.109375 87.203125 -80.171875 C 81.828125 -83.234375 75.578125 -84.765625 68.453125 -84.765625 C 61.453125 -84.765625 55.257812 -83.234375 49.875 -80.171875 C 44.5 -77.109375 40.28125 -72.859375 37.21875 -67.421875 C 34.15625 -61.984375 32.625 -55.765625 32.625 -48.765625 Z M 32.625 -48.765625 "/></g></g></g><g fill="#0d81a3" fill-opacity="1"><g transform="translate(898.011008, 393.43542)"><g><path d="M 70.515625 2.4375 C 62.890625 2.4375 55.851562 0.96875 49.40625 -1.96875 C 42.96875 -4.90625 37.5625 -8.875 33.1875 -13.875 L 33.1875 37.5 L 17.4375 37.5 L 17.4375 -97.328125 L 30.375 -97.328125 L 32.25 -82.328125 C 36.625 -87.828125 42.09375 -92.109375 48.65625 -95.171875 C 55.226562 -98.234375 62.515625 -99.765625 70.515625 -99.765625 C 80.140625 -99.765625 88.671875 -97.546875 96.109375 -93.109375 C 103.546875 -88.671875 109.390625 -82.640625 113.640625 -75.015625 C 117.890625 -67.390625 120.015625 -58.640625 120.015625 -48.765625 C 120.015625 -38.878906 117.890625 -30.09375 113.640625 -22.40625 C 109.390625 -14.71875 103.546875 -8.65625 96.109375 -4.21875 C 88.671875 0.21875 80.140625 2.4375 70.515625 2.4375 Z M 32.625 -48.765625 C 32.625 -41.753906 34.15625 -35.53125 37.21875 -30.09375 C 40.28125 -24.65625 44.5 -20.40625 49.875 -17.34375 C 55.257812 -14.28125 61.453125 -12.75 68.453125 -12.75 C 75.578125 -12.75 81.828125 -14.28125 87.203125 -17.34375 C 92.578125 -20.40625 96.765625 -24.65625 99.765625 -30.09375 C 102.765625 -35.53125 104.265625 -41.753906 104.265625 -48.765625 C 104.265625 -55.765625 102.765625 -61.984375 99.765625 -67.421875 C 96.765625 -72.859375 92.578125 -77.109375 87.203125 -80.171875 C 81.828125 -83.234375 75.578125 -84.765625 68.453125 -84.765625 C 61.453125 -84.765625 55.257812 -83.234375 49.875 -80.171875 C 44.5 -77.109375 40.28125 -72.859375 37.21875 -67.421875 C 34.15625 -61.984375 32.625 -55.765625 32.625 -48.765625 Z M 32.625 -48.765625 "/></g></g></g><g fill="#0d81a3" fill-opacity="1"><g transform="translate(1019.318726, 393.43542)"><g><path d="M 49.328125 1.5 C 37.566406 1.5 28.375 -1.15625 21.75 -6.46875 C 15.125 -11.78125 11.8125 -19 11.8125 -28.125 C 11.8125 -37 14.875 -44.0625 21 -49.3125 C 27.125 -54.570312 35.25 -57.203125 45.375 -57.203125 L 85.140625 -57.203125 L 85.140625 -60.765625 C 85.140625 -68.390625 82.765625 -74.359375 78.015625 -78.671875 C 73.265625 -82.984375 66.765625 -85.140625 58.515625 -85.140625 C 52.265625 -85.140625 46.820312 -83.734375 42.1875 -80.921875 C 37.5625 -78.109375 34.4375 -74.328125 32.8125 -69.578125 L 16.875 -69.578125 C 19 -78.953125 23.78125 -86.328125 31.21875 -91.703125 C 38.65625 -97.078125 47.691406 -99.765625 58.328125 -99.765625 C 66.828125 -99.765625 74.265625 -98.171875 80.640625 -94.984375 C 87.015625 -91.796875 91.984375 -87.359375 95.546875 -81.671875 C 99.109375 -75.984375 100.890625 -69.390625 100.890625 -61.890625 L 100.890625 0 L 87.953125 0 L 86.265625 -13.5 C 77.390625 -3.5 65.078125 1.5 49.328125 1.5 Z M 27.5625 -28.3125 C 27.5625 -23.5625 29.5625 -19.75 33.5625 -16.875 C 37.5625 -14 43.003906 -12.5625 49.890625 -12.5625 C 56.640625 -12.5625 62.640625 -13.875 67.890625 -16.5 C 73.140625 -19.125 77.328125 -22.75 80.453125 -27.375 C 83.578125 -32 85.203125 -37.3125 85.328125 -43.3125 L 45.9375 -43.3125 C 40.5625 -43.3125 36.15625 -41.96875 32.71875 -39.28125 C 29.28125 -36.59375 27.5625 -32.9375 27.5625 -28.3125 Z M 27.5625 -28.3125 "/></g></g></g></svg>