<svg xmlns="http://www.w3.org/2000/svg" xmlns:xlink="http://www.w3.org/1999/xlink" width="1536" zoomAndPan="magnify" viewBox="0 0 1152 647.999998" height="864" preserveAspectRatio="xMidYMid meet" version="1.0"><defs><g/><clipPath id="294dfa9a16"><path d="M 42.871094 189.867188 L 317.117188 189.867188 L 317.117188 458.132812 L 42.871094 458.132812 Z M 42.871094 189.867188 " clip-rule="nonzero"/></clipPath></defs><g clip-path="url(#294dfa9a16)"><path fill="#0d81a3" d="M 42.871094 189.867188 L 317.421875 189.867188 L 317.421875 458.132812 L 42.871094 458.132812 Z M 42.871094 189.867188 " fill-opacity="1" fill-rule="nonzero"/></g><g fill="#ffffff" fill-opacity="1"><g transform="translate(103.158285, 398.729654)"><g><path d="M 3.75 0 L 67.359375 -154.59375 L 85.46875 -154.59375 L 149.078125 0 L 128.546875 0 L 113.96875 -35.109375 L 38.65625 -35.109375 L 24.515625 0 Z M 46.15625 -53.234375 L 106.671875 -53.234375 L 76.421875 -127.4375 Z M 46.15625 -53.234375 "/></g></g></g><g fill="#000000" fill-opacity="1"><g transform="translate(338.109714, 368.002757)"><g><path d="M 16.109375 0 L 16.109375 -89.921875 L 28.0625 -89.921875 L 29.453125 -78.65625 C 36.378906 -87.664062 46.140625 -92.171875 58.734375 -92.171875 C 65.890625 -92.171875 72.179688 -90.664062 77.609375 -87.65625 C 83.046875 -84.65625 87.265625 -80.269531 90.265625 -74.5 C 97.535156 -86.28125 108.679688 -92.171875 123.703125 -92.171875 C 135.015625 -92.171875 144.050781 -88.53125 150.8125 -81.25 C 157.570312 -73.976562 160.953125 -64.046875 160.953125 -51.453125 L 160.953125 0 L 146.390625 0 L 146.390625 -49.03125 C 146.390625 -57.925781 144.164062 -65.03125 139.71875 -70.34375 C 135.28125 -75.65625 129.304688 -78.3125 121.796875 -78.3125 C 114.054688 -78.3125 107.789062 -75.535156 103 -69.984375 C 98.207031 -64.441406 95.8125 -57.050781 95.8125 -47.8125 L 95.8125 0 L 81.25 0 L 81.25 -49.03125 C 81.25 -57.925781 79.023438 -65.03125 74.578125 -70.34375 C 70.128906 -75.65625 64.15625 -78.3125 56.65625 -78.3125 C 48.914062 -78.3125 42.648438 -75.535156 37.859375 -69.984375 C 33.066406 -64.441406 30.671875 -57.050781 30.671875 -47.8125 L 30.671875 0 Z M 16.109375 0 "/></g></g></g><g fill="#000000" fill-opacity="1"><g transform="translate(498.185747, 368.002757)"><g><path d="M 65.140625 2.25 C 57.742188 2.25 51.015625 0.804688 44.953125 -2.078125 C 38.890625 -4.960938 33.835938 -8.890625 29.796875 -13.859375 L 28.0625 0 L 16.109375 0 L 16.109375 -128.203125 L 30.671875 -128.203125 L 30.671875 -77.09375 C 34.710938 -81.832031 39.707031 -85.53125 45.65625 -88.1875 C 51.601562 -90.84375 58.097656 -92.171875 65.140625 -92.171875 C 74.035156 -92.171875 81.914062 -90.117188 88.78125 -86.015625 C 95.65625 -81.921875 101.054688 -76.347656 104.984375 -69.296875 C 108.910156 -62.253906 110.875 -54.171875 110.875 -45.046875 C 110.875 -35.921875 108.910156 -27.804688 104.984375 -20.703125 C 101.054688 -13.597656 95.65625 -7.992188 88.78125 -3.890625 C 81.914062 0.203125 74.035156 2.25 65.140625 2.25 Z M 30.140625 -45.046875 C 30.140625 -38.578125 31.554688 -32.828125 34.390625 -27.796875 C 37.222656 -22.773438 41.117188 -18.847656 46.078125 -16.015625 C 51.046875 -13.191406 56.765625 -11.78125 63.234375 -11.78125 C 69.816406 -11.78125 75.59375 -13.191406 80.5625 -16.015625 C 85.53125 -18.847656 89.398438 -22.773438 92.171875 -27.796875 C 94.941406 -32.828125 96.328125 -38.578125 96.328125 -45.046875 C 96.328125 -51.515625 94.941406 -57.257812 92.171875 -62.28125 C 89.398438 -67.300781 85.53125 -71.226562 80.5625 -74.0625 C 75.59375 -76.894531 69.816406 -78.3125 63.234375 -78.3125 C 56.765625 -78.3125 51.046875 -76.894531 46.078125 -74.0625 C 41.117188 -71.226562 37.222656 -67.300781 34.390625 -62.28125 C 31.554688 -57.257812 30.140625 -51.515625 30.140625 -45.046875 Z M 30.140625 -45.046875 "/></g></g></g><g fill="#000000" fill-opacity="1"><g transform="translate(602.823586, 368.002757)"><g><path d="M 45.5625 1.390625 C 34.707031 1.390625 26.21875 -1.0625 20.09375 -5.96875 C 13.976562 -10.882812 10.921875 -17.554688 10.921875 -25.984375 C 10.921875 -34.179688 13.75 -40.707031 19.40625 -45.5625 C 25.0625 -50.414062 32.566406 -52.84375 41.921875 -52.84375 L 78.65625 -52.84375 L 78.65625 -56.140625 C 78.65625 -63.179688 76.457031 -68.691406 72.0625 -72.671875 C 67.675781 -76.660156 61.671875 -78.65625 54.046875 -78.65625 C 48.273438 -78.65625 43.253906 -77.351562 38.984375 -74.75 C 34.710938 -72.15625 31.820312 -68.664062 30.3125 -64.28125 L 15.59375 -64.28125 C 17.550781 -72.9375 21.96875 -79.75 28.84375 -84.71875 C 35.71875 -89.6875 44.0625 -92.171875 53.875 -92.171875 C 61.726562 -92.171875 68.597656 -90.695312 74.484375 -87.75 C 80.378906 -84.800781 84.972656 -80.695312 88.265625 -75.4375 C 91.554688 -70.1875 93.203125 -64.097656 93.203125 -57.171875 L 93.203125 0 L 81.25 0 L 79.6875 -12.46875 C 71.488281 -3.226562 60.113281 1.390625 45.5625 1.390625 Z M 25.46875 -26.15625 C 25.46875 -21.769531 27.316406 -18.25 31.015625 -15.59375 C 34.710938 -12.9375 39.734375 -11.609375 46.078125 -11.609375 C 52.316406 -11.609375 57.863281 -12.820312 62.71875 -15.25 C 67.570312 -17.675781 71.441406 -21.023438 74.328125 -25.296875 C 77.210938 -29.566406 78.710938 -34.472656 78.828125 -40.015625 L 42.453125 -40.015625 C 37.484375 -40.015625 33.410156 -38.773438 30.234375 -36.296875 C 27.054688 -33.816406 25.46875 -30.4375 25.46875 -26.15625 Z M 25.46875 -26.15625 "/></g></g></g><g fill="#000000" fill-opacity="1"><g transform="translate(694.987805, 368.002757)"><g><path d="M 16.109375 0 L 16.109375 -89.921875 L 30.671875 -89.921875 L 30.671875 0 Z M 11.609375 -116.078125 C 11.609375 -119.429688 12.675781 -122.175781 14.8125 -124.3125 C 16.945312 -126.445312 19.804688 -127.515625 23.390625 -127.515625 C 26.972656 -127.515625 29.800781 -126.445312 31.875 -124.3125 C 33.957031 -122.175781 35 -119.429688 35 -116.078125 C 35 -112.835938 33.957031 -110.148438 31.875 -108.015625 C 29.800781 -105.878906 26.972656 -104.8125 23.390625 -104.8125 C 19.804688 -104.8125 16.945312 -105.878906 14.8125 -108.015625 C 12.675781 -110.148438 11.609375 -112.835938 11.609375 -116.078125 Z M 11.609375 -116.078125 "/></g></g></g><g fill="#000000" fill-opacity="1"><g transform="translate(726.516508, 368.002757)"><g><path d="M 16.109375 0 L 16.109375 -89.921875 L 28.0625 -89.921875 L 29.625 -76.75 C 33.550781 -82.175781 38.316406 -86.101562 43.921875 -88.53125 C 49.523438 -90.957031 55.328125 -92.171875 61.328125 -92.171875 C 73.335938 -92.171875 82.691406 -88.359375 89.390625 -80.734375 C 96.097656 -73.109375 99.453125 -62.882812 99.453125 -50.0625 L 99.453125 0 L 84.890625 0 L 84.890625 -48.6875 C 84.890625 -57.8125 82.609375 -65.03125 78.046875 -70.34375 C 73.484375 -75.65625 67.273438 -78.3125 59.421875 -78.3125 C 53.878906 -78.3125 48.941406 -76.953125 44.609375 -74.234375 C 40.273438 -71.523438 36.867188 -67.6875 34.390625 -62.71875 C 31.910156 -57.75 30.671875 -51.972656 30.671875 -45.390625 L 30.671875 0 Z M 16.109375 0 "/></g></g></g><g fill="#000000" fill-opacity="1"><g transform="translate(825.090761, 368.002757)"><g><path d="M 55.265625 2.25 C 46.253906 2.25 38.285156 0.226562 31.359375 -3.8125 C 24.429688 -7.851562 18.972656 -13.453125 14.984375 -20.609375 C 11.003906 -27.773438 9.015625 -35.921875 9.015625 -45.046875 C 9.015625 -54.171875 11.003906 -62.285156 14.984375 -69.390625 C 18.972656 -76.492188 24.429688 -82.066406 31.359375 -86.109375 C 38.285156 -90.148438 46.253906 -92.171875 55.265625 -92.171875 C 62.773438 -92.171875 69.644531 -90.753906 75.875 -87.921875 C 82.113281 -85.097656 87.367188 -81.171875 91.640625 -76.140625 C 95.921875 -71.117188 98.8125 -65.203125 100.3125 -58.390625 L 85.578125 -58.390625 C 82.921875 -64.617188 78.90625 -69.492188 73.53125 -73.015625 C 68.164062 -76.546875 62.078125 -78.3125 55.265625 -78.3125 C 49.140625 -78.3125 43.679688 -76.894531 38.890625 -74.0625 C 34.097656 -71.226562 30.34375 -67.300781 27.625 -62.28125 C 24.914062 -57.257812 23.5625 -51.515625 23.5625 -45.046875 C 23.5625 -38.578125 24.914062 -32.828125 27.625 -27.796875 C 30.34375 -22.773438 34.097656 -18.847656 38.890625 -16.015625 C 43.679688 -13.191406 49.140625 -11.78125 55.265625 -11.78125 C 62.546875 -11.78125 68.925781 -13.710938 74.40625 -17.578125 C 79.894531 -21.453125 83.738281 -26.625 85.9375 -33.09375 L 101.34375 -33.09375 C 98.34375 -22.238281 92.742188 -13.632812 84.546875 -7.28125 C 76.347656 -0.925781 66.585938 2.25 55.265625 2.25 Z M 55.265625 2.25 "/></g></g></g><g fill="#000000" fill-opacity="1"><g transform="translate(919.680398, 368.002757)"><g><path d="M 16.109375 0 L 16.109375 -89.921875 L 30.671875 -89.921875 L 30.671875 0 Z M 11.609375 -116.078125 C 11.609375 -119.429688 12.675781 -122.175781 14.8125 -124.3125 C 16.945312 -126.445312 19.804688 -127.515625 23.390625 -127.515625 C 26.972656 -127.515625 29.800781 -126.445312 31.875 -124.3125 C 33.957031 -122.175781 35 -119.429688 35 -116.078125 C 35 -112.835938 33.957031 -110.148438 31.875 -108.015625 C 29.800781 -105.878906 26.972656 -104.8125 23.390625 -104.8125 C 19.804688 -104.8125 16.945312 -105.878906 14.8125 -108.015625 C 12.675781 -110.148438 11.609375 -112.835938 11.609375 -116.078125 Z M 11.609375 -116.078125 "/></g></g></g><g fill="#000000" fill-opacity="1"><g transform="translate(951.209101, 368.002757)"><g><path d="M 65.140625 2.25 C 58.097656 2.25 51.601562 0.894531 45.65625 -1.8125 C 39.707031 -4.53125 34.710938 -8.203125 30.671875 -12.828125 L 30.671875 34.65625 L 16.109375 34.65625 L 16.109375 -89.921875 L 28.0625 -89.921875 L 29.796875 -76.0625 C 33.835938 -81.144531 38.890625 -85.097656 44.953125 -87.921875 C 51.015625 -90.753906 57.742188 -92.171875 65.140625 -92.171875 C 74.035156 -92.171875 81.914062 -90.117188 88.78125 -86.015625 C 95.65625 -81.921875 101.054688 -76.347656 104.984375 -69.296875 C 108.910156 -62.253906 110.875 -54.171875 110.875 -45.046875 C 110.875 -35.921875 108.910156 -27.804688 104.984375 -20.703125 C 101.054688 -13.597656 95.65625 -7.992188 88.78125 -3.890625 C 81.914062 0.203125 74.035156 2.25 65.140625 2.25 Z M 30.140625 -45.046875 C 30.140625 -38.578125 31.554688 -32.828125 34.390625 -27.796875 C 37.222656 -22.773438 41.117188 -18.847656 46.078125 -16.015625 C 51.046875 -13.191406 56.765625 -11.78125 63.234375 -11.78125 C 69.816406 -11.78125 75.59375 -13.191406 80.5625 -16.015625 C 85.53125 -18.847656 89.398438 -22.773438 92.171875 -27.796875 C 94.941406 -32.828125 96.328125 -38.578125 96.328125 -45.046875 C 96.328125 -51.515625 94.941406 -57.257812 92.171875 -62.28125 C 89.398438 -67.300781 85.53125 -71.226562 80.5625 -74.0625 C 75.59375 -76.894531 69.816406 -78.3125 63.234375 -78.3125 C 56.765625 -78.3125 51.046875 -76.894531 46.078125 -74.0625 C 41.117188 -71.226562 37.222656 -67.300781 34.390625 -62.28125 C 31.554688 -57.257812 30.140625 -51.515625 30.140625 -45.046875 Z M 30.140625 -45.046875 "/></g></g></g></svg>