<svg xmlns="http://www.w3.org/2000/svg" xmlns:xlink="http://www.w3.org/1999/xlink" width="1536" zoomAndPan="magnify" viewBox="0 0 1152 647.999998" height="864" preserveAspectRatio="xMidYMid meet" version="1.0"><defs><g/><clipPath id="fea828c261"><path d="M 128.367188 356 L 215 356 L 215 423 L 128.367188 423 Z M 128.367188 356 " clip-rule="nonzero"/></clipPath><clipPath id="209319b951"><path d="M 183 391 L 257 391 L 257 458.113281 L 183 458.113281 Z M 183 391 " clip-rule="nonzero"/></clipPath><clipPath id="4ca43d904e"><path d="M 128.367188 258 L 197 258 L 197 332 L 128.367188 332 Z M 128.367188 258 " clip-rule="nonzero"/></clipPath><clipPath id="c276ca3df2"><path d="M 165 203.023438 L 232 203.023438 L 232 289 L 165 289 Z M 165 203.023438 " clip-rule="nonzero"/></clipPath><clipPath id="24107dd930"><path d="M 299 240 L 383.460938 240 L 383.460938 307 L 299 307 Z M 299 240 " clip-rule="nonzero"/></clipPath><clipPath id="5a3818abcc"><path d="M 316 330 L 383.460938 330 L 383.460938 404 L 316 404 Z M 316 330 " clip-rule="nonzero"/></clipPath><clipPath id="e3e01a5104"><path d="M 256 203.023438 L 330 203.023438 L 330 271 L 256 271 Z M 256 203.023438 " clip-rule="nonzero"/></clipPath><clipPath id="95e3c4a3c3"><path d="M 281 373 L 348 373 L 348 458.113281 L 281 458.113281 Z M 281 373 " clip-rule="nonzero"/></clipPath></defs><g clip-path="url(#fea828c261)"><path fill="#ccdb29" d="M 196.320312 356.332031 L 196.089844 356.5625 L 128.363281 356.5625 L 128.363281 381.65625 L 170.996094 381.65625 L 148.355469 404.300781 L 166.09375 422.042969 L 214.066406 374.074219 Z M 196.320312 356.332031 " fill-opacity="1" fill-rule="nonzero"/></g><g clip-path="url(#209319b951)"><path fill="#ccdb29" d="M 231.726562 391.894531 L 183.835938 439.785156 L 201.582031 457.523438 L 231.726562 427.378906 L 231.726562 459.402344 L 256.816406 459.402344 L 256.816406 391.5625 L 231.726562 391.5625 Z M 231.726562 391.894531 " fill-opacity="1" fill-rule="nonzero"/></g><g clip-path="url(#4ca43d904e)"><path fill="#ccdb29" d="M 196.199219 306.382812 L 195.867188 306.382812 L 147.976562 258.492188 L 130.238281 276.238281 L 160.386719 306.382812 L 128.363281 306.382812 L 128.363281 331.472656 L 196.199219 331.472656 Z M 196.199219 306.382812 " fill-opacity="1" fill-rule="nonzero"/></g><g clip-path="url(#c276ca3df2)"><path fill="#ccdb29" d="M 231.429688 270.976562 L 231.195312 270.738281 L 231.195312 203.019531 L 206.101562 203.019531 L 206.101562 245.652344 L 183.460938 223.011719 L 165.71875 240.75 L 213.691406 288.722656 Z M 231.429688 270.976562 " fill-opacity="1" fill-rule="nonzero"/></g><g clip-path="url(#24107dd930)"><path fill="#ccdb29" d="M 342.113281 280.757812 L 364.753906 258.117188 L 347.015625 240.375 L 299.042969 288.34375 L 316.785156 306.085938 L 317.019531 305.847656 L 384.746094 305.847656 L 384.746094 280.757812 Z M 342.113281 280.757812 " fill-opacity="1" fill-rule="nonzero"/></g><g clip-path="url(#5a3818abcc)"><path fill="#ccdb29" d="M 316.910156 356.03125 L 317.230469 356.03125 L 365.128906 403.921875 L 382.871094 386.183594 L 352.722656 356.03125 L 384.746094 356.03125 L 384.746094 330.941406 L 316.910156 330.941406 Z M 316.910156 356.03125 " fill-opacity="1" fill-rule="nonzero"/></g><g clip-path="url(#e3e01a5104)"><path fill="#ccdb29" d="M 311.527344 204.890625 L 281.375 235.042969 L 281.375 203.019531 L 256.285156 203.019531 L 256.285156 270.855469 L 281.375 270.855469 L 281.375 270.527344 L 329.265625 222.632812 Z M 311.527344 204.890625 " fill-opacity="1" fill-rule="nonzero"/></g><g clip-path="url(#95e3c4a3c3)"><path fill="#ccdb29" d="M 281.679688 391.4375 L 281.910156 391.667969 L 281.910156 459.402344 L 307 459.402344 L 307 416.765625 L 329.644531 439.410156 L 347.390625 421.667969 L 299.417969 373.699219 Z M 281.679688 391.4375 " fill-opacity="1" fill-rule="nonzero"/></g><g fill="#000000" fill-opacity="1"><g transform="translate(395.405521, 320.667108)"><g><path d="M 46.640625 -79.765625 L 46.640625 0 L 26.734375 0 L 26.734375 -79.765625 L 3.484375 -79.765625 L 3.484375 -97.15625 L 69.875 -97.15625 L 69.875 -79.765625 Z M 46.640625 -79.765625 "/></g></g></g><g fill="#000000" fill-opacity="1"><g transform="translate(468.750752, 320.667108)"><g><path d="M 8.484375 -103.015625 L 27.984375 -103.015625 L 27.984375 -60.6875 L 30.203125 -60.6875 C 30.765625 -62.632812 31.53125 -64.441406 32.5 -66.109375 C 33.476562 -67.785156 34.660156 -69.273438 36.046875 -70.578125 C 37.441406 -71.878906 39.066406 -72.898438 40.921875 -73.640625 C 42.773438 -74.378906 44.957031 -74.75 47.46875 -74.75 C 53.96875 -74.75 58.929688 -72.546875 62.359375 -68.140625 C 65.796875 -63.734375 67.515625 -57.585938 67.515625 -49.703125 L 67.515625 0 L 48.03125 0 L 48.03125 -45.9375 C 48.03125 -54.570312 45.015625 -58.890625 38.984375 -58.890625 C 36.003906 -58.890625 33.425781 -57.984375 31.25 -56.171875 C 29.070312 -54.359375 27.984375 -51.828125 27.984375 -48.578125 L 27.984375 0 L 8.484375 0 Z M 8.484375 -103.015625 "/></g></g></g><g fill="#000000" fill-opacity="1"><g transform="translate(543.905267, 320.667108)"><g><path d="M 37.3125 1.671875 C 27.28125 1.671875 19.269531 -1.503906 13.28125 -7.859375 C 7.300781 -14.222656 4.3125 -23.757812 4.3125 -36.46875 C 4.3125 -49.457031 6.929688 -59.082031 12.171875 -65.34375 C 17.421875 -71.613281 25.148438 -74.75 35.359375 -74.75 C 45.566406 -74.75 53.289062 -71.613281 58.53125 -65.34375 C 63.78125 -59.082031 66.40625 -49.457031 66.40625 -36.46875 L 66.40625 -31.734375 L 24.640625 -31.734375 L 24.640625 -27.140625 C 24.640625 -23.054688 25.890625 -19.785156 28.390625 -17.328125 C 30.898438 -14.867188 34.335938 -13.640625 38.703125 -13.640625 C 42.316406 -13.640625 45.398438 -14.453125 47.953125 -16.078125 C 50.503906 -17.703125 52.847656 -19.953125 54.984375 -22.828125 L 64.875 -11.28125 C 61.90625 -7.289062 58.125 -4.132812 53.53125 -1.8125 C 48.9375 0.507812 43.53125 1.671875 37.3125 1.671875 Z M 35.359375 -60.140625 C 28.210938 -60.140625 24.640625 -55.960938 24.640625 -47.609375 L 24.640625 -43.15625 L 46.078125 -43.15625 L 46.078125 -47.609375 C 46.078125 -55.960938 42.503906 -60.140625 35.359375 -60.140625 Z M 35.359375 -60.140625 "/></g></g></g><g fill="#000000" fill-opacity="1"><g transform="translate(614.606182, 320.667108)"><g><path d="M 37.859375 1.671875 C 23.296875 1.671875 11.882812 -3.429688 3.625 -13.640625 L 16.421875 -26.453125 C 21.992188 -19.304688 29.28125 -15.734375 38.28125 -15.734375 C 47.5625 -15.734375 52.203125 -19.816406 52.203125 -27.984375 C 52.203125 -31.316406 51.363281 -33.910156 49.6875 -35.765625 C 48.019531 -37.628906 45.425781 -38.929688 41.90625 -39.671875 L 32.984375 -41.34375 C 23.984375 -43.007812 17.375 -46.140625 13.15625 -50.734375 C 8.9375 -55.328125 6.828125 -61.707031 6.828125 -69.875 C 6.828125 -79.34375 9.609375 -86.535156 15.171875 -91.453125 C 20.742188 -96.367188 28.910156 -98.828125 39.671875 -98.828125 C 53.410156 -98.828125 63.851562 -94.375 71 -85.46875 L 58.1875 -72.65625 C 55.769531 -75.632812 53.050781 -77.84375 50.03125 -79.28125 C 47.019531 -80.71875 43.472656 -81.4375 39.390625 -81.4375 C 34.941406 -81.4375 31.71875 -80.597656 29.71875 -78.921875 C 27.726562 -77.253906 26.734375 -74.566406 26.734375 -70.859375 C 26.734375 -67.609375 27.5 -65.144531 29.03125 -63.46875 C 30.5625 -61.800781 33.039062 -60.597656 36.46875 -59.859375 L 45.375 -58.046875 C 50.113281 -57.023438 54.175781 -55.796875 57.5625 -54.359375 C 60.945312 -52.921875 63.726562 -51.085938 65.90625 -48.859375 C 68.09375 -46.628906 69.671875 -43.984375 70.640625 -40.921875 C 71.617188 -37.859375 72.109375 -34.285156 72.109375 -30.203125 C 72.109375 -19.804688 69.179688 -11.894531 63.328125 -6.46875 C 57.484375 -1.039062 48.992188 1.671875 37.859375 1.671875 Z M 37.859375 1.671875 "/></g></g></g><g fill="#000000" fill-opacity="1"><g transform="translate(691.987498, 320.667108)"><g><path d="M 37.859375 1.671875 C 23.296875 1.671875 11.882812 -3.429688 3.625 -13.640625 L 16.421875 -26.453125 C 21.992188 -19.304688 29.28125 -15.734375 38.28125 -15.734375 C 47.5625 -15.734375 52.203125 -19.816406 52.203125 -27.984375 C 52.203125 -31.316406 51.363281 -33.910156 49.6875 -35.765625 C 48.019531 -37.628906 45.425781 -38.929688 41.90625 -39.671875 L 32.984375 -41.34375 C 23.984375 -43.007812 17.375 -46.140625 13.15625 -50.734375 C 8.9375 -55.328125 6.828125 -61.707031 6.828125 -69.875 C 6.828125 -79.34375 9.609375 -86.535156 15.171875 -91.453125 C 20.742188 -96.367188 28.910156 -98.828125 39.671875 -98.828125 C 53.410156 -98.828125 63.851562 -94.375 71 -85.46875 L 58.1875 -72.65625 C 55.769531 -75.632812 53.050781 -77.84375 50.03125 -79.28125 C 47.019531 -80.71875 43.472656 -81.4375 39.390625 -81.4375 C 34.941406 -81.4375 31.71875 -80.597656 29.71875 -78.921875 C 27.726562 -77.253906 26.734375 -74.566406 26.734375 -70.859375 C 26.734375 -67.609375 27.5 -65.144531 29.03125 -63.46875 C 30.5625 -61.800781 33.039062 -60.597656 36.46875 -59.859375 L 45.375 -58.046875 C 50.113281 -57.023438 54.175781 -55.796875 57.5625 -54.359375 C 60.945312 -52.921875 63.726562 -51.085938 65.90625 -48.859375 C 68.09375 -46.628906 69.671875 -43.984375 70.640625 -40.921875 C 71.617188 -37.859375 72.109375 -34.285156 72.109375 -30.203125 C 72.109375 -19.804688 69.179688 -11.894531 63.328125 -6.46875 C 57.484375 -1.039062 48.992188 1.671875 37.859375 1.671875 Z M 37.859375 1.671875 "/></g></g></g><g fill="#000000" fill-opacity="1"><g transform="translate(769.368814, 320.667108)"><g><path d="M 74.46875 -50.671875 L 75.59375 -66.953125 L 73.359375 -66.953125 L 67.375 -51.5 L 51.234375 -16.28125 L 35.21875 -51.5 L 29.234375 -66.953125 L 27 -66.953125 L 28.125 -50.671875 L 28.125 0 L 9.46875 0 L 9.46875 -97.15625 L 30.34375 -97.15625 L 43.578125 -68.203125 L 50.8125 -47.46875 L 52.203125 -47.46875 L 59.4375 -68.203125 L 72.390625 -97.15625 L 93.125 -97.15625 L 93.125 0 L 74.46875 0 Z M 74.46875 -50.671875 "/></g></g></g><g fill="#000000" fill-opacity="1"><g transform="translate(872.079966, 320.667108)"><g><path d="M 9.46875 0 L 9.46875 -97.15625 L 29.375 -97.15625 L 29.375 -17.40625 L 62.359375 -17.40625 L 62.359375 0 Z M 9.46875 0 "/></g></g></g><g fill="#000000" fill-opacity="1"><g transform="translate(421.902559, 382.99185)"><g><path d="M 13.953125 -29.40625 L 13.953125 0 L 10.203125 0 L 10.203125 -29.40625 L 0.984375 -29.40625 L 0.984375 -32.6875 L 23.1875 -32.6875 L 23.1875 -29.40625 Z M 13.953125 -29.40625 "/></g></g></g><g fill="#000000" fill-opacity="1"><g transform="translate(446.058651, 382.99185)"><g><path d="M 3.5625 -34.65625 L 7.125 -34.65625 L 7.125 -20.234375 L 7.59375 -20.234375 C 8.050781 -21.734375 8.769531 -22.851562 9.75 -23.59375 C 10.738281 -24.34375 12.078125 -24.71875 13.765625 -24.71875 C 15.921875 -24.71875 17.613281 -23.984375 18.84375 -22.515625 C 20.082031 -21.054688 20.703125 -18.796875 20.703125 -15.734375 L 20.703125 0 L 17.140625 0 L 17.140625 -15.5 C 17.140625 -17.4375 16.738281 -18.921875 15.9375 -19.953125 C 15.144531 -20.984375 13.921875 -21.5 12.265625 -21.5 C 10.828125 -21.5 9.609375 -21.0625 8.609375 -20.1875 C 7.617188 -19.3125 7.125 -18.078125 7.125 -16.484375 L 7.125 0 L 3.5625 0 Z M 3.5625 -34.65625 "/></g></g></g><g fill="#000000" fill-opacity="1"><g transform="translate(470.074334, 382.99185)"><g><path d="M 11.796875 0.5625 C 10.390625 0.5625 9.078125 0.328125 7.859375 -0.140625 C 6.648438 -0.609375 5.609375 -1.359375 4.734375 -2.390625 C 3.859375 -3.421875 3.171875 -4.726562 2.671875 -6.3125 C 2.171875 -7.90625 1.921875 -9.828125 1.921875 -12.078125 C 1.921875 -14.328125 2.171875 -16.25 2.671875 -17.84375 C 3.171875 -19.4375 3.859375 -20.75 4.734375 -21.78125 C 5.609375 -22.8125 6.648438 -23.554688 7.859375 -24.015625 C 9.078125 -24.484375 10.390625 -24.71875 11.796875 -24.71875 C 13.203125 -24.71875 14.488281 -24.484375 15.65625 -24.015625 C 16.832031 -23.554688 17.828125 -22.8125 18.640625 -21.78125 C 19.453125 -20.75 20.082031 -19.4375 20.53125 -17.84375 C 20.988281 -16.25 21.21875 -14.328125 21.21875 -12.078125 L 21.21875 -11.1875 L 5.71875 -11.1875 L 5.71875 -9.640625 C 5.71875 -7.273438 6.253906 -5.503906 7.328125 -4.328125 C 8.398438 -3.160156 9.890625 -2.578125 11.796875 -2.578125 C 13.421875 -2.578125 14.75 -2.925781 15.78125 -3.625 C 16.8125 -4.332031 17.625 -5.390625 18.21875 -6.796875 L 20.65625 -5.015625 C 19.90625 -3.359375 18.800781 -2.015625 17.34375 -0.984375 C 15.894531 0.046875 14.046875 0.5625 11.796875 0.5625 Z M 11.796875 -21.734375 C 9.859375 -21.734375 8.359375 -21.125 7.296875 -19.90625 C 6.242188 -18.6875 5.71875 -16.890625 5.71875 -14.515625 L 5.71875 -13.90625 L 17.421875 -13.90625 L 17.421875 -14.515625 C 17.421875 -19.328125 15.546875 -21.734375 11.796875 -21.734375 Z M 11.796875 -21.734375 "/></g></g></g><g fill="#000000" fill-opacity="1"><g transform="translate(493.247348, 382.99185)"><g/></g></g><g fill="#000000" fill-opacity="1"><g transform="translate(503.171956, 382.99185)"><g><path d="M 12.21875 0.5625 C 9.875 0.5625 7.828125 0.0703125 6.078125 -0.90625 C 4.335938 -1.894531 2.890625 -3.265625 1.734375 -5.015625 L 4.453125 -7.265625 C 5.453125 -5.796875 6.570312 -4.660156 7.8125 -3.859375 C 9.0625 -3.066406 10.53125 -2.671875 12.21875 -2.671875 C 16.65625 -2.671875 18.875 -4.742188 18.875 -8.890625 C 18.875 -10.578125 18.46875 -11.859375 17.65625 -12.734375 C 16.84375 -13.609375 15.4375 -14.296875 13.4375 -14.796875 L 11 -15.40625 C 8.132812 -16.125 6.019531 -17.175781 4.65625 -18.5625 C 3.300781 -19.957031 2.625 -21.914062 2.625 -24.4375 C 2.625 -27.34375 3.523438 -29.535156 5.328125 -31.015625 C 7.140625 -32.503906 9.546875 -33.25 12.546875 -33.25 C 14.828125 -33.25 16.738281 -32.828125 18.28125 -31.984375 C 19.832031 -31.140625 21.1875 -29.8125 22.34375 -28 L 19.578125 -26.03125 C 18.734375 -27.34375 17.769531 -28.332031 16.6875 -29 C 15.613281 -29.675781 14.1875 -30.015625 12.40625 -30.015625 C 10.40625 -30.015625 8.882812 -29.578125 7.84375 -28.703125 C 6.800781 -27.828125 6.28125 -26.40625 6.28125 -24.4375 C 6.28125 -22.851562 6.707031 -21.65625 7.5625 -20.84375 C 8.414062 -20.03125 9.796875 -19.390625 11.703125 -18.921875 L 14.140625 -18.3125 C 15.671875 -17.9375 16.96875 -17.488281 18.03125 -16.96875 C 19.09375 -16.457031 19.957031 -15.828125 20.625 -15.078125 C 21.300781 -14.328125 21.785156 -13.441406 22.078125 -12.421875 C 22.378906 -11.410156 22.53125 -10.234375 22.53125 -8.890625 C 22.53125 -5.804688 21.613281 -3.457031 19.78125 -1.84375 C 17.957031 -0.238281 15.4375 0.5625 12.21875 0.5625 Z M 12.21875 0.5625 "/></g></g></g><g fill="#000000" fill-opacity="1"><g transform="translate(527.749403, 382.99185)"><g><path d="M 8.421875 0 C 7.148438 0 6.222656 -0.285156 5.640625 -0.859375 C 5.066406 -1.441406 4.78125 -2.375 4.78125 -3.65625 L 4.78125 -21.03125 L 1.21875 -21.03125 L 1.21875 -24.15625 L 3.328125 -24.15625 C 4.046875 -24.15625 4.519531 -24.332031 4.75 -24.6875 C 4.988281 -25.050781 5.109375 -25.59375 5.109375 -26.3125 L 5.109375 -30.8125 L 8.328125 -30.8125 L 8.328125 -24.15625 L 13.015625 -24.15625 L 13.015625 -21.03125 L 8.328125 -21.03125 L 8.328125 -3.140625 L 12.78125 -3.140625 L 12.78125 0 Z M 8.421875 0 "/></g></g></g><g fill="#000000" fill-opacity="1"><g transform="translate(542.636314, 382.99185)"><g><path d="M 18.828125 0 C 16.515625 0 15.359375 -1.15625 15.359375 -3.46875 L 15.359375 -3.9375 L 14.890625 -3.9375 C 14.484375 -2.46875 13.738281 -1.347656 12.65625 -0.578125 C 11.582031 0.179688 10.296875 0.5625 8.796875 0.5625 C 6.460938 0.5625 4.71875 -0.03125 3.5625 -1.21875 C 2.40625 -2.40625 1.828125 -4.15625 1.828125 -6.46875 C 1.828125 -8.707031 2.566406 -10.484375 4.046875 -11.796875 C 5.535156 -13.109375 7.851562 -13.765625 11 -13.765625 L 15.359375 -13.765625 L 15.359375 -16.4375 C 15.359375 -18.21875 14.957031 -19.53125 14.15625 -20.375 C 13.363281 -21.21875 12.109375 -21.640625 10.390625 -21.640625 C 8.984375 -21.640625 7.851562 -21.332031 7 -20.71875 C 6.144531 -20.113281 5.40625 -19.234375 4.78125 -18.078125 L 2.671875 -20.046875 C 3.296875 -21.359375 4.296875 -22.457031 5.671875 -23.34375 C 7.046875 -24.226562 8.664062 -24.671875 10.53125 -24.671875 C 13.28125 -24.671875 15.363281 -24.007812 16.78125 -22.6875 C 18.207031 -21.363281 18.921875 -19.40625 18.921875 -16.8125 L 18.921875 -3.140625 L 21.359375 -3.140625 L 21.359375 0 Z M 9.6875 -2.53125 C 10.5 -2.53125 11.253906 -2.671875 11.953125 -2.953125 C 12.660156 -3.234375 13.265625 -3.597656 13.765625 -4.046875 C 14.265625 -4.503906 14.65625 -5.019531 14.9375 -5.59375 C 15.21875 -6.175781 15.359375 -6.78125 15.359375 -7.40625 L 15.359375 -11.046875 L 10.90625 -11.046875 C 9.03125 -11.046875 7.664062 -10.734375 6.8125 -10.109375 C 5.957031 -9.484375 5.53125 -8.582031 5.53125 -7.40625 L 5.53125 -6.09375 C 5.53125 -4.875 5.90625 -3.972656 6.65625 -3.390625 C 7.40625 -2.816406 8.414062 -2.53125 9.6875 -2.53125 Z M 9.6875 -2.53125 "/></g></g></g><g fill="#000000" fill-opacity="1"><g transform="translate(565.247564, 382.99185)"><g><path d="M 3.5625 0 L 3.5625 -24.15625 L 7.125 -24.15625 L 7.125 -20.234375 L 7.59375 -20.234375 C 8.050781 -21.734375 8.769531 -22.851562 9.75 -23.59375 C 10.738281 -24.34375 12.078125 -24.71875 13.765625 -24.71875 C 15.921875 -24.71875 17.613281 -23.984375 18.84375 -22.515625 C 20.082031 -21.054688 20.703125 -18.796875 20.703125 -15.734375 L 20.703125 0 L 17.140625 0 L 17.140625 -15.5 C 17.140625 -17.4375 16.738281 -18.921875 15.9375 -19.953125 C 15.144531 -20.984375 13.921875 -21.5 12.265625 -21.5 C 10.828125 -21.5 9.609375 -21.0625 8.609375 -20.1875 C 7.617188 -19.3125 7.125 -18.078125 7.125 -16.484375 L 7.125 0 Z M 3.5625 0 "/></g></g></g><g fill="#000000" fill-opacity="1"><g transform="translate(589.263246, 382.99185)"><g><path d="M 17.421875 -3.9375 L 16.953125 -3.9375 C 16.484375 -2.34375 15.722656 -1.191406 14.671875 -0.484375 C 13.628906 0.210938 12.359375 0.5625 10.859375 0.5625 C 9.421875 0.5625 8.15625 0.265625 7.0625 -0.328125 C 5.976562 -0.921875 5.0625 -1.765625 4.3125 -2.859375 C 3.5625 -3.953125 3 -5.273438 2.625 -6.828125 C 2.25 -8.390625 2.0625 -10.140625 2.0625 -12.078125 C 2.0625 -14.015625 2.25 -15.765625 2.625 -17.328125 C 3 -18.890625 3.5625 -20.21875 4.3125 -21.3125 C 5.0625 -22.40625 5.976562 -23.242188 7.0625 -23.828125 C 8.15625 -24.421875 9.421875 -24.71875 10.859375 -24.71875 C 12.359375 -24.71875 13.628906 -24.367188 14.671875 -23.671875 C 15.722656 -22.972656 16.484375 -21.828125 16.953125 -20.234375 L 17.421875 -20.234375 L 17.421875 -34.65625 L 20.984375 -34.65625 L 20.984375 0 L 17.421875 0 Z M 11.9375 -2.625 C 12.6875 -2.625 13.394531 -2.734375 14.0625 -2.953125 C 14.738281 -3.171875 15.316406 -3.484375 15.796875 -3.890625 C 16.285156 -4.296875 16.675781 -4.78125 16.96875 -5.34375 C 17.269531 -5.90625 17.421875 -6.53125 17.421875 -7.21875 L 17.421875 -16.953125 C 17.421875 -17.640625 17.269531 -18.265625 16.96875 -18.828125 C 16.675781 -19.390625 16.285156 -19.875 15.796875 -20.28125 C 15.316406 -20.6875 14.738281 -21 14.0625 -21.21875 C 13.394531 -21.4375 12.6875 -21.546875 11.9375 -21.546875 C 9.96875 -21.546875 8.46875 -20.925781 7.4375 -19.6875 C 6.414062 -18.457031 5.90625 -16.734375 5.90625 -14.515625 L 5.90625 -9.640625 C 5.90625 -7.429688 6.414062 -5.707031 7.4375 -4.46875 C 8.46875 -3.238281 9.96875 -2.625 11.9375 -2.625 Z M 11.9375 -2.625 "/></g></g></g><g fill="#000000" fill-opacity="1"><g transform="translate(613.793862, 382.99185)"><g><path d="M 18.828125 0 C 16.515625 0 15.359375 -1.15625 15.359375 -3.46875 L 15.359375 -3.9375 L 14.890625 -3.9375 C 14.484375 -2.46875 13.738281 -1.347656 12.65625 -0.578125 C 11.582031 0.179688 10.296875 0.5625 8.796875 0.5625 C 6.460938 0.5625 4.71875 -0.03125 3.5625 -1.21875 C 2.40625 -2.40625 1.828125 -4.15625 1.828125 -6.46875 C 1.828125 -8.707031 2.566406 -10.484375 4.046875 -11.796875 C 5.535156 -13.109375 7.851562 -13.765625 11 -13.765625 L 15.359375 -13.765625 L 15.359375 -16.4375 C 15.359375 -18.21875 14.957031 -19.53125 14.15625 -20.375 C 13.363281 -21.21875 12.109375 -21.640625 10.390625 -21.640625 C 8.984375 -21.640625 7.851562 -21.332031 7 -20.71875 C 6.144531 -20.113281 5.40625 -19.234375 4.78125 -18.078125 L 2.671875 -20.046875 C 3.296875 -21.359375 4.296875 -22.457031 5.671875 -23.34375 C 7.046875 -24.226562 8.664062 -24.671875 10.53125 -24.671875 C 13.28125 -24.671875 15.363281 -24.007812 16.78125 -22.6875 C 18.207031 -21.363281 18.921875 -19.40625 18.921875 -16.8125 L 18.921875 -3.140625 L 21.359375 -3.140625 L 21.359375 0 Z M 9.6875 -2.53125 C 10.5 -2.53125 11.253906 -2.671875 11.953125 -2.953125 C 12.660156 -3.234375 13.265625 -3.597656 13.765625 -4.046875 C 14.265625 -4.503906 14.65625 -5.019531 14.9375 -5.59375 C 15.21875 -6.175781 15.359375 -6.78125 15.359375 -7.40625 L 15.359375 -11.046875 L 10.90625 -11.046875 C 9.03125 -11.046875 7.664062 -10.734375 6.8125 -10.109375 C 5.957031 -9.484375 5.53125 -8.582031 5.53125 -7.40625 L 5.53125 -6.09375 C 5.53125 -4.875 5.90625 -3.972656 6.65625 -3.390625 C 7.40625 -2.816406 8.414062 -2.53125 9.6875 -2.53125 Z M 9.6875 -2.53125 "/></g></g></g><g fill="#000000" fill-opacity="1"><g transform="translate(636.405111, 382.99185)"><g><path d="M 3.5625 0 L 3.5625 -24.15625 L 7.125 -24.15625 L 7.125 -19.671875 L 7.59375 -19.671875 C 7.988281 -21.078125 8.675781 -22.175781 9.65625 -22.96875 C 10.644531 -23.757812 11.9375 -24.15625 13.53125 -24.15625 L 14.84375 -24.15625 L 14.84375 -20.5625 L 12.5 -20.5625 C 10.8125 -20.5625 9.492188 -20.1875 8.546875 -19.4375 C 7.597656 -18.6875 7.125 -17.5625 7.125 -16.0625 L 7.125 0 Z M 3.5625 0 "/></g></g></g><g fill="#000000" fill-opacity="1"><g transform="translate(651.947408, 382.99185)"><g><path d="M 17.421875 -3.9375 L 16.953125 -3.9375 C 16.484375 -2.34375 15.722656 -1.191406 14.671875 -0.484375 C 13.628906 0.210938 12.359375 0.5625 10.859375 0.5625 C 9.421875 0.5625 8.15625 0.265625 7.0625 -0.328125 C 5.976562 -0.921875 5.0625 -1.765625 4.3125 -2.859375 C 3.5625 -3.953125 3 -5.273438 2.625 -6.828125 C 2.25 -8.390625 2.0625 -10.140625 2.0625 -12.078125 C 2.0625 -14.015625 2.25 -15.765625 2.625 -17.328125 C 3 -18.890625 3.5625 -20.21875 4.3125 -21.3125 C 5.0625 -22.40625 5.976562 -23.242188 7.0625 -23.828125 C 8.15625 -24.421875 9.421875 -24.71875 10.859375 -24.71875 C 12.359375 -24.71875 13.628906 -24.367188 14.671875 -23.671875 C 15.722656 -22.972656 16.484375 -21.828125 16.953125 -20.234375 L 17.421875 -20.234375 L 17.421875 -34.65625 L 20.984375 -34.65625 L 20.984375 0 L 17.421875 0 Z M 11.9375 -2.625 C 12.6875 -2.625 13.394531 -2.734375 14.0625 -2.953125 C 14.738281 -3.171875 15.316406 -3.484375 15.796875 -3.890625 C 16.285156 -4.296875 16.675781 -4.78125 16.96875 -5.34375 C 17.269531 -5.90625 17.421875 -6.53125 17.421875 -7.21875 L 17.421875 -16.953125 C 17.421875 -17.640625 17.269531 -18.265625 16.96875 -18.828125 C 16.675781 -19.390625 16.285156 -19.875 15.796875 -20.28125 C 15.316406 -20.6875 14.738281 -21 14.0625 -21.21875 C 13.394531 -21.4375 12.6875 -21.546875 11.9375 -21.546875 C 9.96875 -21.546875 8.46875 -20.925781 7.4375 -19.6875 C 6.414062 -18.457031 5.90625 -16.734375 5.90625 -14.515625 L 5.90625 -9.640625 C 5.90625 -7.429688 6.414062 -5.707031 7.4375 -4.46875 C 8.46875 -3.238281 9.96875 -2.625 11.9375 -2.625 Z M 11.9375 -2.625 "/></g></g></g><g fill="#000000" fill-opacity="1"><g transform="translate(676.478024, 382.99185)"><g/></g></g><g fill="#000000" fill-opacity="1"><g transform="translate(686.402632, 382.99185)"><g><path d="M 12.21875 0.5625 C 9.875 0.5625 7.828125 0.0703125 6.078125 -0.90625 C 4.335938 -1.894531 2.890625 -3.265625 1.734375 -5.015625 L 4.453125 -7.265625 C 5.453125 -5.796875 6.570312 -4.660156 7.8125 -3.859375 C 9.0625 -3.066406 10.53125 -2.671875 12.21875 -2.671875 C 16.65625 -2.671875 18.875 -4.742188 18.875 -8.890625 C 18.875 -10.578125 18.46875 -11.859375 17.65625 -12.734375 C 16.84375 -13.609375 15.4375 -14.296875 13.4375 -14.796875 L 11 -15.40625 C 8.132812 -16.125 6.019531 -17.175781 4.65625 -18.5625 C 3.300781 -19.957031 2.625 -21.914062 2.625 -24.4375 C 2.625 -27.34375 3.523438 -29.535156 5.328125 -31.015625 C 7.140625 -32.503906 9.546875 -33.25 12.546875 -33.25 C 14.828125 -33.25 16.738281 -32.828125 18.28125 -31.984375 C 19.832031 -31.140625 21.1875 -29.8125 22.34375 -28 L 19.578125 -26.03125 C 18.734375 -27.34375 17.769531 -28.332031 16.6875 -29 C 15.613281 -29.675781 14.1875 -30.015625 12.40625 -30.015625 C 10.40625 -30.015625 8.882812 -29.578125 7.84375 -28.703125 C 6.800781 -27.828125 6.28125 -26.40625 6.28125 -24.4375 C 6.28125 -22.851562 6.707031 -21.65625 7.5625 -20.84375 C 8.414062 -20.03125 9.796875 -19.390625 11.703125 -18.921875 L 14.140625 -18.3125 C 15.671875 -17.9375 16.96875 -17.488281 18.03125 -16.96875 C 19.09375 -16.457031 19.957031 -15.828125 20.625 -15.078125 C 21.300781 -14.328125 21.785156 -13.441406 22.078125 -12.421875 C 22.378906 -11.410156 22.53125 -10.234375 22.53125 -8.890625 C 22.53125 -5.804688 21.613281 -3.457031 19.78125 -1.84375 C 17.957031 -0.238281 15.4375 0.5625 12.21875 0.5625 Z M 12.21875 0.5625 "/></g></g></g><g fill="#000000" fill-opacity="1"><g transform="translate(710.980079, 382.99185)"><g><path d="M 11.515625 0.5625 C 8.523438 0.5625 6.175781 -0.421875 4.46875 -2.390625 C 2.769531 -4.359375 1.921875 -7.585938 1.921875 -12.078125 C 1.921875 -16.578125 2.769531 -19.804688 4.46875 -21.765625 C 6.175781 -23.734375 8.523438 -24.71875 11.515625 -24.71875 C 13.796875 -24.71875 15.613281 -24.195312 16.96875 -23.15625 C 18.332031 -22.113281 19.328125 -20.78125 19.953125 -19.15625 L 17 -17.65625 C 16.59375 -18.90625 15.953125 -19.863281 15.078125 -20.53125 C 14.203125 -21.207031 13.015625 -21.546875 11.515625 -21.546875 C 9.546875 -21.546875 8.09375 -20.96875 7.15625 -19.8125 C 6.226562 -18.65625 5.765625 -16.890625 5.765625 -14.515625 L 5.765625 -9.640625 C 5.765625 -7.273438 6.226562 -5.515625 7.15625 -4.359375 C 8.09375 -3.203125 9.546875 -2.625 11.515625 -2.625 C 13.078125 -2.625 14.332031 -2.96875 15.28125 -3.65625 C 16.238281 -4.34375 17 -5.390625 17.5625 -6.796875 L 20.1875 -4.96875 C 19.46875 -3.28125 18.378906 -1.9375 16.921875 -0.9375 C 15.472656 0.0625 13.671875 0.5625 11.515625 0.5625 Z M 11.515625 0.5625 "/></g></g></g><g fill="#000000" fill-opacity="1"><g transform="translate(732.233727, 382.99185)"><g><path d="M 3.5625 -34.65625 L 7.125 -34.65625 L 7.125 -20.234375 L 7.59375 -20.234375 C 8.050781 -21.734375 8.769531 -22.851562 9.75 -23.59375 C 10.738281 -24.34375 12.078125 -24.71875 13.765625 -24.71875 C 15.921875 -24.71875 17.613281 -23.984375 18.84375 -22.515625 C 20.082031 -21.054688 20.703125 -18.796875 20.703125 -15.734375 L 20.703125 0 L 17.140625 0 L 17.140625 -15.5 C 17.140625 -17.4375 16.738281 -18.921875 15.9375 -19.953125 C 15.144531 -20.984375 13.921875 -21.5 12.265625 -21.5 C 10.828125 -21.5 9.609375 -21.0625 8.609375 -20.1875 C 7.617188 -19.3125 7.125 -18.078125 7.125 -16.484375 L 7.125 0 L 3.5625 0 Z M 3.5625 -34.65625 "/></g></g></g><g fill="#000000" fill-opacity="1"><g transform="translate(756.249409, 382.99185)"><g><path d="M 11.796875 0.5625 C 10.390625 0.5625 9.078125 0.328125 7.859375 -0.140625 C 6.648438 -0.609375 5.609375 -1.359375 4.734375 -2.390625 C 3.859375 -3.421875 3.171875 -4.726562 2.671875 -6.3125 C 2.171875 -7.90625 1.921875 -9.828125 1.921875 -12.078125 C 1.921875 -14.328125 2.171875 -16.25 2.671875 -17.84375 C 3.171875 -19.4375 3.859375 -20.75 4.734375 -21.78125 C 5.609375 -22.8125 6.648438 -23.554688 7.859375 -24.015625 C 9.078125 -24.484375 10.390625 -24.71875 11.796875 -24.71875 C 13.203125 -24.71875 14.515625 -24.484375 15.734375 -24.015625 C 16.953125 -23.554688 18 -22.8125 18.875 -21.78125 C 19.75 -20.75 20.4375 -19.4375 20.9375 -17.84375 C 21.4375 -16.25 21.6875 -14.328125 21.6875 -12.078125 C 21.6875 -9.828125 21.4375 -7.90625 20.9375 -6.3125 C 20.4375 -4.726562 19.75 -3.421875 18.875 -2.390625 C 18 -1.359375 16.953125 -0.609375 15.734375 -0.140625 C 14.515625 0.328125 13.203125 0.5625 11.796875 0.5625 Z M 11.796875 -2.625 C 13.734375 -2.625 15.222656 -3.203125 16.265625 -4.359375 C 17.316406 -5.515625 17.84375 -7.273438 17.84375 -9.640625 L 17.84375 -14.515625 C 17.84375 -16.890625 17.316406 -18.65625 16.265625 -19.8125 C 15.222656 -20.96875 13.734375 -21.546875 11.796875 -21.546875 C 9.859375 -21.546875 8.367188 -20.96875 7.328125 -19.8125 C 6.285156 -18.65625 5.765625 -16.890625 5.765625 -14.515625 L 5.765625 -9.640625 C 5.765625 -7.273438 6.285156 -5.515625 7.328125 -4.359375 C 8.367188 -3.203125 9.859375 -2.625 11.796875 -2.625 Z M 11.796875 -2.625 "/></g></g></g><g fill="#000000" fill-opacity="1"><g transform="translate(779.843737, 382.99185)"><g><path d="M 11.796875 0.5625 C 10.390625 0.5625 9.078125 0.328125 7.859375 -0.140625 C 6.648438 -0.609375 5.609375 -1.359375 4.734375 -2.390625 C 3.859375 -3.421875 3.171875 -4.726562 2.671875 -6.3125 C 2.171875 -7.90625 1.921875 -9.828125 1.921875 -12.078125 C 1.921875 -14.328125 2.171875 -16.25 2.671875 -17.84375 C 3.171875 -19.4375 3.859375 -20.75 4.734375 -21.78125 C 5.609375 -22.8125 6.648438 -23.554688 7.859375 -24.015625 C 9.078125 -24.484375 10.390625 -24.71875 11.796875 -24.71875 C 13.203125 -24.71875 14.515625 -24.484375 15.734375 -24.015625 C 16.953125 -23.554688 18 -22.8125 18.875 -21.78125 C 19.75 -20.75 20.4375 -19.4375 20.9375 -17.84375 C 21.4375 -16.25 21.6875 -14.328125 21.6875 -12.078125 C 21.6875 -9.828125 21.4375 -7.90625 20.9375 -6.3125 C 20.4375 -4.726562 19.75 -3.421875 18.875 -2.390625 C 18 -1.359375 16.953125 -0.609375 15.734375 -0.140625 C 14.515625 0.328125 13.203125 0.5625 11.796875 0.5625 Z M 11.796875 -2.625 C 13.734375 -2.625 15.222656 -3.203125 16.265625 -4.359375 C 17.316406 -5.515625 17.84375 -7.273438 17.84375 -9.640625 L 17.84375 -14.515625 C 17.84375 -16.890625 17.316406 -18.65625 16.265625 -19.8125 C 15.222656 -20.96875 13.734375 -21.546875 11.796875 -21.546875 C 9.859375 -21.546875 8.367188 -20.96875 7.328125 -19.8125 C 6.285156 -18.65625 5.765625 -16.890625 5.765625 -14.515625 L 5.765625 -9.640625 C 5.765625 -7.273438 6.285156 -5.515625 7.328125 -4.359375 C 8.367188 -3.203125 9.859375 -2.625 11.796875 -2.625 Z M 11.796875 -2.625 "/></g></g></g><g fill="#000000" fill-opacity="1"><g transform="translate(803.438064, 382.99185)"><g><path d="M 7.21875 0 C 5.9375 0 5.003906 -0.285156 4.421875 -0.859375 C 3.847656 -1.441406 3.5625 -2.375 3.5625 -3.65625 L 3.5625 -34.65625 L 7.125 -34.65625 L 7.125 -3.140625 L 10.15625 -3.140625 L 10.15625 0 Z M 7.21875 0 "/></g></g></g><g fill="#000000" fill-opacity="1"><g transform="translate(824.925784, 382.99185)"><g><path d="M 11.796875 0.5625 C 10.390625 0.5625 9.078125 0.328125 7.859375 -0.140625 C 6.648438 -0.609375 5.609375 -1.359375 4.734375 -2.390625 C 3.859375 -3.421875 3.171875 -4.726562 2.671875 -6.3125 C 2.171875 -7.90625 1.921875 -9.828125 1.921875 -12.078125 C 1.921875 -14.328125 2.171875 -16.25 2.671875 -17.84375 C 3.171875 -19.4375 3.859375 -20.75 4.734375 -21.78125 C 5.609375 -22.8125 6.648438 -23.554688 7.859375 -24.015625 C 9.078125 -24.484375 10.390625 -24.71875 11.796875 -24.71875 C 13.203125 -24.71875 14.515625 -24.484375 15.734375 -24.015625 C 16.953125 -23.554688 18 -22.8125 18.875 -21.78125 C 19.75 -20.75 20.4375 -19.4375 20.9375 -17.84375 C 21.4375 -16.25 21.6875 -14.328125 21.6875 -12.078125 C 21.6875 -9.828125 21.4375 -7.90625 20.9375 -6.3125 C 20.4375 -4.726562 19.75 -3.421875 18.875 -2.390625 C 18 -1.359375 16.953125 -0.609375 15.734375 -0.140625 C 14.515625 0.328125 13.203125 0.5625 11.796875 0.5625 Z M 11.796875 -2.625 C 13.734375 -2.625 15.222656 -3.203125 16.265625 -4.359375 C 17.316406 -5.515625 17.84375 -7.273438 17.84375 -9.640625 L 17.84375 -14.515625 C 17.84375 -16.890625 17.316406 -18.65625 16.265625 -19.8125 C 15.222656 -20.96875 13.734375 -21.546875 11.796875 -21.546875 C 9.859375 -21.546875 8.367188 -20.96875 7.328125 -19.8125 C 6.285156 -18.65625 5.765625 -16.890625 5.765625 -14.515625 L 5.765625 -9.640625 C 5.765625 -7.273438 6.285156 -5.515625 7.328125 -4.359375 C 8.367188 -3.203125 9.859375 -2.625 11.796875 -2.625 Z M 11.796875 -2.625 "/></g></g></g><g fill="#000000" fill-opacity="1"><g transform="translate(848.520112, 382.99185)"><g><path d="M 4.734375 -21.03125 L 1.21875 -21.03125 L 1.21875 -24.15625 L 4.734375 -24.15625 L 4.734375 -30.0625 C 4.734375 -31.65625 5.097656 -32.816406 5.828125 -33.546875 C 6.566406 -34.285156 7.726562 -34.65625 9.3125 -34.65625 L 12.921875 -34.65625 L 12.921875 -31.515625 L 8.28125 -31.515625 L 8.28125 -24.15625 L 12.921875 -24.15625 L 12.921875 -21.03125 L 8.28125 -21.03125 L 8.28125 0 L 4.734375 0 Z M 4.734375 -21.03125 "/></g></g></g><g fill="#000000" fill-opacity="1"><g transform="translate(421.902559, 447.889362)"><g><path d="M 26.6875 -22.4375 L 27.015625 -28.046875 L 26.546875 -28.046875 L 24.109375 -22.4375 L 17.09375 -8 L 10.0625 -22.4375 L 7.640625 -27.953125 L 7.171875 -27.953125 L 7.5 -22.4375 L 7.5 0 L 3.84375 0 L 3.84375 -32.6875 L 8.796875 -32.6875 L 14.703125 -20 L 16.90625 -13.953125 L 17.28125 -13.953125 L 19.484375 -20 L 25.375 -32.6875 L 30.34375 -32.6875 L 30.34375 0 L 26.6875 0 Z M 26.6875 -22.4375 "/></g></g></g><g fill="#000000" fill-opacity="1"><g transform="translate(456.076879, 447.889362)"><g><path d="M 18.828125 0 C 16.515625 0 15.359375 -1.15625 15.359375 -3.46875 L 15.359375 -3.9375 L 14.890625 -3.9375 C 14.484375 -2.46875 13.738281 -1.347656 12.65625 -0.578125 C 11.582031 0.179688 10.296875 0.5625 8.796875 0.5625 C 6.460938 0.5625 4.71875 -0.03125 3.5625 -1.21875 C 2.40625 -2.40625 1.828125 -4.15625 1.828125 -6.46875 C 1.828125 -8.707031 2.566406 -10.484375 4.046875 -11.796875 C 5.535156 -13.109375 7.851562 -13.765625 11 -13.765625 L 15.359375 -13.765625 L 15.359375 -16.4375 C 15.359375 -18.21875 14.957031 -19.53125 14.15625 -20.375 C 13.363281 -21.21875 12.109375 -21.640625 10.390625 -21.640625 C 8.984375 -21.640625 7.851562 -21.332031 7 -20.71875 C 6.144531 -20.113281 5.40625 -19.234375 4.78125 -18.078125 L 2.671875 -20.046875 C 3.296875 -21.359375 4.296875 -22.457031 5.671875 -23.34375 C 7.046875 -24.226562 8.664062 -24.671875 10.53125 -24.671875 C 13.28125 -24.671875 15.363281 -24.007812 16.78125 -22.6875 C 18.207031 -21.363281 18.921875 -19.40625 18.921875 -16.8125 L 18.921875 -3.140625 L 21.359375 -3.140625 L 21.359375 0 Z M 9.6875 -2.53125 C 10.5 -2.53125 11.253906 -2.671875 11.953125 -2.953125 C 12.660156 -3.234375 13.265625 -3.597656 13.765625 -4.046875 C 14.265625 -4.503906 14.65625 -5.019531 14.9375 -5.59375 C 15.21875 -6.175781 15.359375 -6.78125 15.359375 -7.40625 L 15.359375 -11.046875 L 10.90625 -11.046875 C 9.03125 -11.046875 7.664062 -10.734375 6.8125 -10.109375 C 5.957031 -9.484375 5.53125 -8.582031 5.53125 -7.40625 L 5.53125 -6.09375 C 5.53125 -4.875 5.90625 -3.972656 6.65625 -3.390625 C 7.40625 -2.816406 8.414062 -2.53125 9.6875 -2.53125 Z M 9.6875 -2.53125 "/></g></g></g><g fill="#000000" fill-opacity="1"><g transform="translate(478.688129, 447.889362)"><g><path d="M 11.515625 0.5625 C 8.523438 0.5625 6.175781 -0.421875 4.46875 -2.390625 C 2.769531 -4.359375 1.921875 -7.585938 1.921875 -12.078125 C 1.921875 -16.578125 2.769531 -19.804688 4.46875 -21.765625 C 6.175781 -23.734375 8.523438 -24.71875 11.515625 -24.71875 C 13.796875 -24.71875 15.613281 -24.195312 16.96875 -23.15625 C 18.332031 -22.113281 19.328125 -20.78125 19.953125 -19.15625 L 17 -17.65625 C 16.59375 -18.90625 15.953125 -19.863281 15.078125 -20.53125 C 14.203125 -21.207031 13.015625 -21.546875 11.515625 -21.546875 C 9.546875 -21.546875 8.09375 -20.96875 7.15625 -19.8125 C 6.226562 -18.65625 5.765625 -16.890625 5.765625 -14.515625 L 5.765625 -9.640625 C 5.765625 -7.273438 6.226562 -5.515625 7.15625 -4.359375 C 8.09375 -3.203125 9.546875 -2.625 11.515625 -2.625 C 13.078125 -2.625 14.332031 -2.96875 15.28125 -3.65625 C 16.238281 -4.34375 17 -5.390625 17.5625 -6.796875 L 20.1875 -4.96875 C 19.46875 -3.28125 18.378906 -1.9375 16.921875 -0.9375 C 15.472656 0.0625 13.671875 0.5625 11.515625 0.5625 Z M 11.515625 0.5625 "/></g></g></g><g fill="#000000" fill-opacity="1"><g transform="translate(499.941777, 447.889362)"><g><path d="M 3.5625 -34.65625 L 7.125 -34.65625 L 7.125 -20.234375 L 7.59375 -20.234375 C 8.050781 -21.734375 8.769531 -22.851562 9.75 -23.59375 C 10.738281 -24.34375 12.078125 -24.71875 13.765625 -24.71875 C 15.921875 -24.71875 17.613281 -23.984375 18.84375 -22.515625 C 20.082031 -21.054688 20.703125 -18.796875 20.703125 -15.734375 L 20.703125 0 L 17.140625 0 L 17.140625 -15.5 C 17.140625 -17.4375 16.738281 -18.921875 15.9375 -19.953125 C 15.144531 -20.984375 13.921875 -21.5 12.265625 -21.5 C 10.828125 -21.5 9.609375 -21.0625 8.609375 -20.1875 C 7.617188 -19.3125 7.125 -18.078125 7.125 -16.484375 L 7.125 0 L 3.5625 0 Z M 3.5625 -34.65625 "/></g></g></g><g fill="#000000" fill-opacity="1"><g transform="translate(523.957459, 447.889362)"><g><path d="M 5.34375 -30.015625 C 3.875 -30.015625 3.140625 -30.65625 3.140625 -31.9375 L 3.140625 -32.6875 C 3.140625 -33.96875 3.875 -34.609375 5.34375 -34.609375 C 6.8125 -34.609375 7.546875 -33.96875 7.546875 -32.6875 L 7.546875 -31.9375 C 7.546875 -30.65625 6.8125 -30.015625 5.34375 -30.015625 Z M 3.5625 -24.15625 L 7.125 -24.15625 L 7.125 0 L 3.5625 0 Z M 3.5625 -24.15625 "/></g></g></g><g fill="#000000" fill-opacity="1"><g transform="translate(534.631073, 447.889362)"><g><path d="M 3.5625 0 L 3.5625 -24.15625 L 7.125 -24.15625 L 7.125 -20.234375 L 7.59375 -20.234375 C 8.050781 -21.734375 8.769531 -22.851562 9.75 -23.59375 C 10.738281 -24.34375 12.078125 -24.71875 13.765625 -24.71875 C 15.921875 -24.71875 17.613281 -23.984375 18.84375 -22.515625 C 20.082031 -21.054688 20.703125 -18.796875 20.703125 -15.734375 L 20.703125 0 L 17.140625 0 L 17.140625 -15.5 C 17.140625 -17.4375 16.738281 -18.921875 15.9375 -19.953125 C 15.144531 -20.984375 13.921875 -21.5 12.265625 -21.5 C 10.828125 -21.5 9.609375 -21.0625 8.609375 -20.1875 C 7.617188 -19.3125 7.125 -18.078125 7.125 -16.484375 L 7.125 0 Z M 3.5625 0 "/></g></g></g><g fill="#000000" fill-opacity="1"><g transform="translate(558.646755, 447.889362)"><g><path d="M 11.796875 0.5625 C 10.390625 0.5625 9.078125 0.328125 7.859375 -0.140625 C 6.648438 -0.609375 5.609375 -1.359375 4.734375 -2.390625 C 3.859375 -3.421875 3.171875 -4.726562 2.671875 -6.3125 C 2.171875 -7.90625 1.921875 -9.828125 1.921875 -12.078125 C 1.921875 -14.328125 2.171875 -16.25 2.671875 -17.84375 C 3.171875 -19.4375 3.859375 -20.75 4.734375 -21.78125 C 5.609375 -22.8125 6.648438 -23.554688 7.859375 -24.015625 C 9.078125 -24.484375 10.390625 -24.71875 11.796875 -24.71875 C 13.203125 -24.71875 14.488281 -24.484375 15.65625 -24.015625 C 16.832031 -23.554688 17.828125 -22.8125 18.640625 -21.78125 C 19.453125 -20.75 20.082031 -19.4375 20.53125 -17.84375 C 20.988281 -16.25 21.21875 -14.328125 21.21875 -12.078125 L 21.21875 -11.1875 L 5.71875 -11.1875 L 5.71875 -9.640625 C 5.71875 -7.273438 6.253906 -5.503906 7.328125 -4.328125 C 8.398438 -3.160156 9.890625 -2.578125 11.796875 -2.578125 C 13.421875 -2.578125 14.75 -2.925781 15.78125 -3.625 C 16.8125 -4.332031 17.625 -5.390625 18.21875 -6.796875 L 20.65625 -5.015625 C 19.90625 -3.359375 18.800781 -2.015625 17.34375 -0.984375 C 15.894531 0.046875 14.046875 0.5625 11.796875 0.5625 Z M 11.796875 -21.734375 C 9.859375 -21.734375 8.359375 -21.125 7.296875 -19.90625 C 6.242188 -18.6875 5.71875 -16.890625 5.71875 -14.515625 L 5.71875 -13.90625 L 17.421875 -13.90625 L 17.421875 -14.515625 C 17.421875 -19.328125 15.546875 -21.734375 11.796875 -21.734375 Z M 11.796875 -21.734375 "/></g></g></g><g fill="#000000" fill-opacity="1"><g transform="translate(581.819769, 447.889362)"><g/></g></g><g fill="#000000" fill-opacity="1"><g transform="translate(591.744377, 447.889362)"><g><path d="M 3.890625 0 L 3.890625 -32.6875 L 7.640625 -32.6875 L 7.640625 -3.28125 L 20.046875 -3.28125 L 20.046875 0 Z M 3.890625 0 "/></g></g></g><g fill="#000000" fill-opacity="1"><g transform="translate(612.951194, 447.889362)"><g><path d="M 11.796875 0.5625 C 10.390625 0.5625 9.078125 0.328125 7.859375 -0.140625 C 6.648438 -0.609375 5.609375 -1.359375 4.734375 -2.390625 C 3.859375 -3.421875 3.171875 -4.726562 2.671875 -6.3125 C 2.171875 -7.90625 1.921875 -9.828125 1.921875 -12.078125 C 1.921875 -14.328125 2.171875 -16.25 2.671875 -17.84375 C 3.171875 -19.4375 3.859375 -20.75 4.734375 -21.78125 C 5.609375 -22.8125 6.648438 -23.554688 7.859375 -24.015625 C 9.078125 -24.484375 10.390625 -24.71875 11.796875 -24.71875 C 13.203125 -24.71875 14.488281 -24.484375 15.65625 -24.015625 C 16.832031 -23.554688 17.828125 -22.8125 18.640625 -21.78125 C 19.453125 -20.75 20.082031 -19.4375 20.53125 -17.84375 C 20.988281 -16.25 21.21875 -14.328125 21.21875 -12.078125 L 21.21875 -11.1875 L 5.71875 -11.1875 L 5.71875 -9.640625 C 5.71875 -7.273438 6.253906 -5.503906 7.328125 -4.328125 C 8.398438 -3.160156 9.890625 -2.578125 11.796875 -2.578125 C 13.421875 -2.578125 14.75 -2.925781 15.78125 -3.625 C 16.8125 -4.332031 17.625 -5.390625 18.21875 -6.796875 L 20.65625 -5.015625 C 19.90625 -3.359375 18.800781 -2.015625 17.34375 -0.984375 C 15.894531 0.046875 14.046875 0.5625 11.796875 0.5625 Z M 11.796875 -21.734375 C 9.859375 -21.734375 8.359375 -21.125 7.296875 -19.90625 C 6.242188 -18.6875 5.71875 -16.890625 5.71875 -14.515625 L 5.71875 -13.90625 L 17.421875 -13.90625 L 17.421875 -14.515625 C 17.421875 -19.328125 15.546875 -21.734375 11.796875 -21.734375 Z M 11.796875 -21.734375 "/></g></g></g><g fill="#000000" fill-opacity="1"><g transform="translate(636.124208, 447.889362)"><g><path d="M 18.828125 0 C 16.515625 0 15.359375 -1.15625 15.359375 -3.46875 L 15.359375 -3.9375 L 14.890625 -3.9375 C 14.484375 -2.46875 13.738281 -1.347656 12.65625 -0.578125 C 11.582031 0.179688 10.296875 0.5625 8.796875 0.5625 C 6.460938 0.5625 4.71875 -0.03125 3.5625 -1.21875 C 2.40625 -2.40625 1.828125 -4.15625 1.828125 -6.46875 C 1.828125 -8.707031 2.566406 -10.484375 4.046875 -11.796875 C 5.535156 -13.109375 7.851562 -13.765625 11 -13.765625 L 15.359375 -13.765625 L 15.359375 -16.4375 C 15.359375 -18.21875 14.957031 -19.53125 14.15625 -20.375 C 13.363281 -21.21875 12.109375 -21.640625 10.390625 -21.640625 C 8.984375 -21.640625 7.851562 -21.332031 7 -20.71875 C 6.144531 -20.113281 5.40625 -19.234375 4.78125 -18.078125 L 2.671875 -20.046875 C 3.296875 -21.359375 4.296875 -22.457031 5.671875 -23.34375 C 7.046875 -24.226562 8.664062 -24.671875 10.53125 -24.671875 C 13.28125 -24.671875 15.363281 -24.007812 16.78125 -22.6875 C 18.207031 -21.363281 18.921875 -19.40625 18.921875 -16.8125 L 18.921875 -3.140625 L 21.359375 -3.140625 L 21.359375 0 Z M 9.6875 -2.53125 C 10.5 -2.53125 11.253906 -2.671875 11.953125 -2.953125 C 12.660156 -3.234375 13.265625 -3.597656 13.765625 -4.046875 C 14.265625 -4.503906 14.65625 -5.019531 14.9375 -5.59375 C 15.21875 -6.175781 15.359375 -6.78125 15.359375 -7.40625 L 15.359375 -11.046875 L 10.90625 -11.046875 C 9.03125 -11.046875 7.664062 -10.734375 6.8125 -10.109375 C 5.957031 -9.484375 5.53125 -8.582031 5.53125 -7.40625 L 5.53125 -6.09375 C 5.53125 -4.875 5.90625 -3.972656 6.65625 -3.390625 C 7.40625 -2.816406 8.414062 -2.53125 9.6875 -2.53125 Z M 9.6875 -2.53125 "/></g></g></g><g fill="#000000" fill-opacity="1"><g transform="translate(658.735458, 447.889362)"><g><path d="M 3.5625 0 L 3.5625 -24.15625 L 7.125 -24.15625 L 7.125 -19.671875 L 7.59375 -19.671875 C 7.988281 -21.078125 8.675781 -22.175781 9.65625 -22.96875 C 10.644531 -23.757812 11.9375 -24.15625 13.53125 -24.15625 L 14.84375 -24.15625 L 14.84375 -20.5625 L 12.5 -20.5625 C 10.8125 -20.5625 9.492188 -20.1875 8.546875 -19.4375 C 7.597656 -18.6875 7.125 -17.5625 7.125 -16.0625 L 7.125 0 Z M 3.5625 0 "/></g></g></g><g fill="#000000" fill-opacity="1"><g transform="translate(674.277754, 447.889362)"><g><path d="M 3.5625 0 L 3.5625 -24.15625 L 7.125 -24.15625 L 7.125 -20.234375 L 7.59375 -20.234375 C 8.050781 -21.734375 8.769531 -22.851562 9.75 -23.59375 C 10.738281 -24.34375 12.078125 -24.71875 13.765625 -24.71875 C 15.921875 -24.71875 17.613281 -23.984375 18.84375 -22.515625 C 20.082031 -21.054688 20.703125 -18.796875 20.703125 -15.734375 L 20.703125 0 L 17.140625 0 L 17.140625 -15.5 C 17.140625 -17.4375 16.738281 -18.921875 15.9375 -19.953125 C 15.144531 -20.984375 13.921875 -21.5 12.265625 -21.5 C 10.828125 -21.5 9.609375 -21.0625 8.609375 -20.1875 C 7.617188 -19.3125 7.125 -18.078125 7.125 -16.484375 L 7.125 0 Z M 3.5625 0 "/></g></g></g><g fill="#000000" fill-opacity="1"><g transform="translate(698.293437, 447.889362)"><g><path d="M 5.34375 -30.015625 C 3.875 -30.015625 3.140625 -30.65625 3.140625 -31.9375 L 3.140625 -32.6875 C 3.140625 -33.96875 3.875 -34.609375 5.34375 -34.609375 C 6.8125 -34.609375 7.546875 -33.96875 7.546875 -32.6875 L 7.546875 -31.9375 C 7.546875 -30.65625 6.8125 -30.015625 5.34375 -30.015625 Z M 3.5625 -24.15625 L 7.125 -24.15625 L 7.125 0 L 3.5625 0 Z M 3.5625 -24.15625 "/></g></g></g><g fill="#000000" fill-opacity="1"><g transform="translate(708.96705, 447.889362)"><g><path d="M 3.5625 0 L 3.5625 -24.15625 L 7.125 -24.15625 L 7.125 -20.234375 L 7.59375 -20.234375 C 8.050781 -21.734375 8.769531 -22.851562 9.75 -23.59375 C 10.738281 -24.34375 12.078125 -24.71875 13.765625 -24.71875 C 15.921875 -24.71875 17.613281 -23.984375 18.84375 -22.515625 C 20.082031 -21.054688 20.703125 -18.796875 20.703125 -15.734375 L 20.703125 0 L 17.140625 0 L 17.140625 -15.5 C 17.140625 -17.4375 16.738281 -18.921875 15.9375 -19.953125 C 15.144531 -20.984375 13.921875 -21.5 12.265625 -21.5 C 10.828125 -21.5 9.609375 -21.0625 8.609375 -20.1875 C 7.617188 -19.3125 7.125 -18.078125 7.125 -16.484375 L 7.125 0 Z M 3.5625 0 "/></g></g></g><g fill="#000000" fill-opacity="1"><g transform="translate(732.982733, 447.889362)"><g><path d="M 22.015625 2.71875 C 22.015625 5.28125 21.144531 7.117188 19.40625 8.234375 C 17.675781 9.359375 15 9.921875 11.375 9.921875 C 7.914062 9.921875 5.441406 9.40625 3.953125 8.375 C 2.472656 7.351562 1.734375 5.875 1.734375 3.9375 C 1.734375 2.625 2.0625 1.59375 2.71875 0.84375 C 3.375 0.09375 4.21875 -0.375 5.25 -0.5625 L 5.25 -1.21875 C 4.625 -1.5625 4.128906 -2.003906 3.765625 -2.546875 C 3.410156 -3.097656 3.234375 -3.75 3.234375 -4.5 C 3.234375 -5.5 3.519531 -6.351562 4.09375 -7.0625 C 4.675781 -7.78125 5.625 -8.21875 6.9375 -8.375 L 6.9375 -8.890625 C 5.6875 -9.515625 4.707031 -10.441406 4 -11.671875 C 3.300781 -12.910156 2.953125 -14.46875 2.953125 -16.34375 C 2.953125 -19.09375 3.703125 -21.164062 5.203125 -22.5625 C 6.703125 -23.96875 8.710938 -24.671875 11.234375 -24.671875 C 12.734375 -24.671875 14.09375 -24.40625 15.3125 -23.875 L 15.3125 -24.71875 C 15.3125 -25.625 15.515625 -26.28125 15.921875 -26.6875 C 16.328125 -27.09375 16.984375 -27.296875 17.890625 -27.296875 L 21.125 -27.296875 L 21.125 -24.15625 L 16.953125 -24.15625 L 16.953125 -22.859375 C 17.765625 -22.140625 18.394531 -21.25 18.84375 -20.1875 C 19.300781 -19.125 19.53125 -17.84375 19.53125 -16.34375 C 19.53125 -13.59375 18.78125 -11.515625 17.28125 -10.109375 C 15.78125 -8.703125 13.765625 -8 11.234375 -8 C 10.484375 -8 9.71875 -8.078125 8.9375 -8.234375 C 8.070312 -8.078125 7.410156 -7.726562 6.953125 -7.1875 C 6.503906 -6.644531 6.28125 -6.09375 6.28125 -5.53125 C 6.28125 -4.90625 6.5 -4.4375 6.9375 -4.125 C 7.375 -3.8125 8.085938 -3.65625 9.078125 -3.65625 L 14.375 -3.65625 C 17.09375 -3.65625 19.046875 -3.109375 20.234375 -2.015625 C 21.421875 -0.921875 22.015625 0.65625 22.015625 2.71875 Z M 18.6875 2.953125 C 18.6875 1.890625 18.359375 1.082031 17.703125 0.53125 C 17.046875 -0.0078125 15.921875 -0.28125 14.328125 -0.28125 L 6.984375 -0.28125 C 6.265625 0.0625 5.753906 0.5 5.453125 1.03125 C 5.160156 1.5625 5.015625 2.234375 5.015625 3.046875 C 5.015625 4.265625 5.390625 5.222656 6.140625 5.921875 C 6.890625 6.628906 8.085938 6.984375 9.734375 6.984375 L 12.828125 6.984375 C 14.765625 6.984375 16.222656 6.660156 17.203125 6.015625 C 18.191406 5.378906 18.6875 4.359375 18.6875 2.953125 Z M 11.234375 -10.90625 C 12.703125 -10.90625 13.84375 -11.28125 14.65625 -12.03125 C 15.46875 -12.78125 15.875 -13.9375 15.875 -15.5 L 15.875 -17.234375 C 15.875 -18.796875 15.46875 -19.953125 14.65625 -20.703125 C 13.84375 -21.453125 12.703125 -21.828125 11.234375 -21.828125 C 9.765625 -21.828125 8.625 -21.453125 7.8125 -20.703125 C 7.007812 -19.953125 6.609375 -18.796875 6.609375 -17.234375 L 6.609375 -15.5 C 6.609375 -13.9375 7.007812 -12.78125 7.8125 -12.03125 C 8.625 -11.28125 9.765625 -10.90625 11.234375 -10.90625 Z M 11.234375 -10.90625 "/></g></g></g></svg>