<svg xmlns="http://www.w3.org/2000/svg" xmlns:xlink="http://www.w3.org/1999/xlink" width="1536" zoomAndPan="magnify" viewBox="0 0 1152 647.999998" height="864" preserveAspectRatio="xMidYMid meet" version="1.0"><defs><g/><clipPath id="45e5edacec"><path d="M 579 64.800781 L 820 64.800781 L 820 336 L 579 336 Z M 579 64.800781 " clip-rule="nonzero"/></clipPath><clipPath id="078c63cddd"><path d="M 422 64.800781 L 820 64.800781 L 820 341 L 422 341 Z M 422 64.800781 " clip-rule="nonzero"/></clipPath><clipPath id="565c5301e7"><path d="M 156.734375 348 L 967.601562 348 L 967.601562 396.265625 L 156.734375 396.265625 Z M 156.734375 348 " clip-rule="nonzero"/></clipPath></defs><path fill="#1d1f1c" d="M 687.667969 302.964844 L 819.058594 65.441406 L 544.230469 296.367188 L 544.199219 296.328125 L 495.949219 337.613281 C 517.898438 337.003906 540.183594 336.695312 562.644531 336.695312 C 567.015625 336.695312 571.375 336.707031 575.726562 336.734375 L 577.136719 335.527344 L 579.871094 335.097656 L 687.667969 302.964844 " fill-opacity="1" fill-rule="nonzero"/><g clip-path="url(#45e5edacec)"><path fill="#000000" d="M 819.058594 65.441406 L 687.667969 302.964844 L 579.871094 335.097656 L 691.34375 317.453125 L 819.820312 64.800781 L 819.058594 65.441406 " fill-opacity="1" fill-rule="nonzero"/></g><path fill="#f58614" d="M 817.9375 65.375 L 548.808594 147.820312 L 511.324219 257.203125 L 561.316406 185.480469 L 817.9375 65.375 " fill-opacity="1" fill-rule="nonzero"/><g clip-path="url(#078c63cddd)"><path fill="#f8a62c" d="M 561.316406 185.480469 L 511.324219 257.203125 L 422.71875 332.886719 L 428.90625 340.464844 C 450.78125 339.199219 473.183594 338.242188 495.949219 337.613281 L 544.199219 296.328125 L 544.230469 296.367188 L 819.820312 64.800781 L 817.9375 65.375 L 561.316406 185.480469 " fill-opacity="1" fill-rule="nonzero"/></g><g clip-path="url(#565c5301e7)"><path fill="#1d1f1c" d="M 562.644531 372.554688 C 720.175781 372.554688 863.191406 381.785156 968.554688 396.800781 C 898.527344 368.199219 743.121094 348.3125 562.644531 348.3125 C 382.171875 348.3125 226.765625 368.199219 156.734375 396.800781 C 262.097656 381.785156 405.117188 372.554688 562.644531 372.554688 " fill-opacity="1" fill-rule="nonzero"/></g><g fill="#100f0d" fill-opacity="1"><g transform="translate(175.588715, 559.282644)"><g><path d="M 49.484375 -35.875 C 50.128906 -33.632812 50.488281 -31.304688 50.5625 -28.890625 C 50.644531 -26.484375 50.566406 -24.117188 50.328125 -21.796875 C 49.929688 -17.859375 48.867188 -13.960938 47.140625 -10.109375 C 45.410156 -6.253906 42.78125 -3.40625 39.25 -1.5625 C 37.96875 -0.84375 36.5625 -0.320312 35.03125 0 C 31.425781 0.800781 27.773438 0.722656 24.078125 -0.234375 C 20.390625 -1.203125 17.019531 -2.867188 13.96875 -5.234375 C 10.914062 -7.609375 8.507812 -10.398438 6.75 -13.609375 C 5.21875 -16.492188 4.148438 -19.582031 3.546875 -22.875 C 2.953125 -26.164062 2.691406 -29.457031 2.765625 -32.75 L -0.484375 -32.75 L -0.484375 -35.15625 L 12.890625 -35.15625 L 12.890625 -32.75 L 11.203125 -32.75 C 10.148438 -29.695312 9.6875 -26.503906 9.8125 -23.171875 C 9.9375 -19.847656 10.71875 -16.738281 12.15625 -13.84375 C 13.601562 -10.875 15.710938 -8.34375 18.484375 -6.25 C 21.253906 -4.164062 24.242188 -2.925781 27.453125 -2.53125 C 28.898438 -2.363281 30.34375 -2.378906 31.78125 -2.578125 C 33.226562 -2.785156 34.554688 -3.289062 35.765625 -4.09375 C 37.128906 -4.976562 38.191406 -6.203125 38.953125 -7.765625 C 39.710938 -9.328125 40.253906 -10.875 40.578125 -12.40625 C 41.617188 -16.894531 41.617188 -21.488281 40.578125 -26.1875 C 39.535156 -30.882812 37.609375 -35.078125 34.796875 -38.765625 C 32.628906 -41.578125 30.117188 -44.109375 27.265625 -46.359375 C 24.421875 -48.609375 21.710938 -50.957031 19.140625 -53.40625 C 16.578125 -55.851562 14.570312 -58.679688 13.125 -61.890625 C 12.082031 -64.210938 11.441406 -66.71875 11.203125 -69.40625 C 10.960938 -72.101562 11.039062 -74.734375 11.4375 -77.296875 C 12 -80.347656 13 -83.273438 14.4375 -86.078125 C 15.882812 -88.890625 17.851562 -91.179688 20.34375 -92.953125 C 23.632812 -95.359375 27.164062 -96.5625 30.9375 -96.5625 C 32.382812 -96.644531 33.832031 -96.523438 35.28125 -96.203125 C 36.726562 -95.878906 38.09375 -95.316406 39.375 -94.515625 C 41.625 -93.234375 43.390625 -91.40625 44.671875 -89.03125 C 45.953125 -86.664062 46.851562 -84.117188 47.375 -81.390625 C 47.894531 -78.660156 48.117188 -76.09375 48.046875 -73.6875 C 48.046875 -73.289062 48.023438 -72.507812 47.984375 -71.34375 C 47.941406 -70.175781 47.835938 -69.070312 47.671875 -68.03125 C 47.515625 -66.988281 47.15625 -66.382812 46.59375 -66.21875 C 46.03125 -66.144531 45.367188 -66.726562 44.609375 -67.96875 C 43.847656 -69.207031 43.265625 -70.351562 42.859375 -71.40625 C 42.140625 -73.25 41.675781 -75.132812 41.46875 -77.0625 C 41.269531 -78.988281 40.96875 -80.894531 40.5625 -82.78125 C 40.164062 -84.664062 39.328125 -86.410156 38.046875 -88.015625 C 37.160156 -89.222656 35.992188 -90.304688 34.546875 -91.265625 C 33.109375 -92.234375 31.585938 -92.753906 29.984375 -92.828125 C 28.453125 -92.910156 27.101562 -92.46875 25.9375 -91.5 C 24.78125 -90.539062 23.84375 -89.457031 23.125 -88.25 C 20.707031 -84.082031 19.941406 -79.671875 20.828125 -75.015625 C 21.472656 -71.316406 23 -67.984375 25.40625 -65.015625 C 27.8125 -62.046875 30.378906 -59.28125 33.109375 -56.71875 C 35.921875 -54.226562 38.710938 -51.675781 41.484375 -49.0625 C 44.253906 -46.457031 46.398438 -43.425781 47.921875 -39.96875 C 48.242188 -39.332031 48.523438 -38.671875 48.765625 -37.984375 C 49.003906 -37.304688 49.242188 -36.601562 49.484375 -35.875 Z M 49.484375 -35.875 "/></g></g></g><g fill="#100f0d" fill-opacity="1"><g transform="translate(229.291895, 559.282644)"><g><path d="M 49.25 -2.40625 L 52.140625 -2.40625 L 52.140625 0 L 34.671875 0 L 34.671875 -2.40625 L 37.921875 -2.40625 C 37.359375 -6.257812 36.675781 -10.675781 35.875 -15.65625 C 35.070312 -20.632812 34.351562 -25.367188 33.71875 -29.859375 C 30.664062 -33.554688 26.691406 -36.046875 21.796875 -37.328125 C 20.503906 -37.648438 19.296875 -37.890625 18.171875 -38.046875 C 17.054688 -38.210938 15.851562 -38.210938 14.5625 -38.046875 L 6.859375 -2.40625 L 10.359375 -2.40625 L 10.359375 0 L 0 0 L 0 -2.40625 L 3.125 -2.40625 C 3.125 -2.570312 3.144531 -2.734375 3.1875 -2.890625 C 3.226562 -3.046875 3.25 -3.125 3.25 -3.125 C 4.613281 -8.75 5.894531 -14.429688 7.09375 -20.171875 C 8.300781 -25.910156 9.507812 -31.628906 10.71875 -37.328125 C 10.476562 -37.242188 10.21875 -37.160156 9.9375 -37.078125 C 9.65625 -37.003906 9.394531 -36.882812 9.15625 -36.71875 C 7.945312 -36.15625 6.820312 -35.472656 5.78125 -34.671875 C 4.738281 -33.867188 3.773438 -32.988281 2.890625 -32.03125 C 2.734375 -33.226562 3.035156 -34.226562 3.796875 -35.03125 C 4.554688 -35.84375 5.476562 -36.523438 6.5625 -37.078125 C 7.644531 -37.640625 8.585938 -38.125 9.390625 -38.53125 C 9.710938 -38.6875 10.015625 -38.820312 10.296875 -38.9375 C 10.578125 -39.0625 10.878906 -39.164062 11.203125 -39.25 C 12.804688 -47.039062 14.445312 -54.804688 16.125 -62.546875 C 17.8125 -70.296875 19.539062 -77.941406 21.3125 -85.484375 C 21.46875 -86.285156 21.625 -87.148438 21.78125 -88.078125 C 21.945312 -89.003906 21.75 -89.785156 21.1875 -90.421875 C 20.863281 -90.828125 20.601562 -91.207031 20.40625 -91.5625 C 20.207031 -91.925781 19.945312 -92.269531 19.625 -92.59375 C 19.300781 -92.914062 19.195312 -93.078125 19.3125 -93.078125 C 19.4375 -93.078125 19.742188 -93.078125 20.234375 -93.078125 C 22.078125 -93.234375 23.757812 -93.332031 25.28125 -93.375 C 26.8125 -93.414062 28.5 -93.394531 30.34375 -93.3125 C 31.0625 -93.226562 31.882812 -93.164062 32.8125 -93.125 C 33.738281 -93.09375 34.320312 -92.710938 34.5625 -91.984375 Z M 18.296875 -41.421875 C 20.628906 -41.816406 23 -41.9375 25.40625 -41.78125 C 27.8125 -41.625 30.097656 -41.101562 32.265625 -40.21875 C 31.460938 -46.394531 30.679688 -52.613281 29.921875 -58.875 C 29.160156 -65.132812 28.335938 -71.359375 27.453125 -77.546875 C 27.296875 -79.066406 27.078125 -80.425781 26.796875 -81.625 C 26.515625 -82.832031 25.929688 -84.082031 25.046875 -85.375 C 23.273438 -77.582031 21.585938 -70.09375 19.984375 -62.90625 C 18.378906 -55.726562 16.773438 -48.285156 15.171875 -40.578125 C 15.816406 -40.816406 16.359375 -40.992188 16.796875 -41.109375 C 17.234375 -41.234375 17.734375 -41.335938 18.296875 -41.421875 Z M 18.296875 -41.421875 "/></g></g></g><g fill="#100f0d" fill-opacity="1"><g transform="translate(284.319602, 559.282644)"><g><path d="M 42.140625 -93.671875 L 42.140625 -91.140625 L 39.375 -91.140625 C 38.332031 -91.066406 37.628906 -90.566406 37.265625 -89.640625 C 36.898438 -88.710938 36.679688 -87.847656 36.609375 -87.046875 L 36.609375 -1.921875 C 36.609375 -1.117188 36.425781 -0.597656 36.0625 -0.359375 C 35.695312 -0.117188 35.351562 0 35.03125 0 L 33.953125 0 C 33.234375 0 32.550781 -0.519531 31.90625 -1.5625 C 31.507812 -2.039062 31.269531 -2.5625 31.1875 -3.125 L 10.359375 -67.0625 L 10.359375 -2.53125 L 15.53125 -2.53125 L 15.53125 0 L 0.359375 0 L 0.359375 -2.53125 L 5.90625 -2.53125 L 5.90625 -83.6875 C 5.90625 -86.488281 5.660156 -88.289062 5.171875 -89.09375 C 4.535156 -89.976562 3.050781 -90.421875 0.71875 -90.421875 L 0.359375 -90.421875 L 0.359375 -93.4375 L 13 -93.671875 L 13.125 -93.4375 L 32.390625 -33.359375 L 32.390625 -85.84375 C 32.390625 -87.53125 31.988281 -88.734375 31.1875 -89.453125 C 30.382812 -90.179688 29.5625 -90.644531 28.71875 -90.84375 C 27.875 -91.039062 27.289062 -91.140625 26.96875 -91.140625 L 26.734375 -91.140625 L 26.734375 -93.671875 Z M 42.140625 -93.671875 "/></g></g></g><g fill="#100f0d" fill-opacity="1"><g transform="translate(329.232791, 559.282644)"><g><path d="M 26.25 0.96875 C 26.082031 0.96875 25.878906 0.96875 25.640625 0.96875 C 25.398438 0.96875 25.160156 0.96875 24.921875 0.96875 C 20.992188 0.96875 17.539062 -0.273438 14.5625 -2.765625 C 12.320312 -4.535156 10.195312 -7.265625 8.1875 -10.953125 C 5.457031 -15.847656 3.445312 -21.265625 2.15625 -27.203125 C 0.875 -33.148438 0.394531 -39.414062 0.71875 -46 C 1.363281 -60.769531 4.132812 -72.40625 9.03125 -80.90625 C 9.351562 -81.550781 9.691406 -82.15625 10.046875 -82.71875 C 10.410156 -83.28125 10.796875 -83.800781 11.203125 -84.28125 C 12.328125 -85.96875 13.550781 -87.429688 14.875 -88.671875 C 16.195312 -89.921875 17.582031 -90.945312 19.03125 -91.75 C 20.550781 -92.550781 22.171875 -93.171875 23.890625 -93.609375 C 25.617188 -94.054688 27.488281 -94.316406 29.5 -94.390625 C 29.65625 -94.390625 29.753906 -94.390625 29.796875 -94.390625 C 29.835938 -94.390625 29.898438 -94.390625 29.984375 -94.390625 C 35.035156 -94.390625 39.007812 -91.703125 41.90625 -86.328125 C 43.269531 -83.679688 44.148438 -80.710938 44.546875 -77.421875 C 44.710938 -76.535156 44.796875 -75.609375 44.796875 -74.640625 C 44.796875 -73.679688 44.753906 -72.722656 44.671875 -71.765625 C 44.585938 -69.992188 44.34375 -68.382812 43.9375 -66.9375 C 43.539062 -65.5 42.742188 -64.21875 41.546875 -63.09375 L 41.421875 -62.859375 C 41.097656 -62.535156 40.632812 -62.148438 40.03125 -61.703125 C 39.425781 -61.265625 38.847656 -61.046875 38.296875 -61.046875 C 38.046875 -61.046875 37.84375 -61.125 37.6875 -61.28125 C 37.039062 -61.6875 36.757812 -62.367188 36.84375 -63.328125 C 36.925781 -64.296875 37.046875 -65.222656 37.203125 -66.109375 C 37.285156 -66.347656 37.328125 -66.664062 37.328125 -67.0625 C 37.484375 -68.1875 37.582031 -69.332031 37.625 -70.5 C 37.664062 -71.664062 37.644531 -72.804688 37.5625 -73.921875 C 37.320312 -78.265625 36.320312 -82.519531 34.5625 -86.6875 C 34.15625 -87.570312 33.488281 -88.613281 32.5625 -89.8125 C 31.644531 -91.019531 30.503906 -91.664062 29.140625 -91.75 C 29.054688 -91.75 28.992188 -91.75 28.953125 -91.75 C 28.910156 -91.75 28.851562 -91.75 28.78125 -91.75 C 26.375 -91.75 24.328125 -90.863281 22.640625 -89.09375 C 20.953125 -87.332031 19.585938 -85.1875 18.546875 -82.65625 C 17.503906 -80.125 16.617188 -77.695312 15.890625 -75.375 C 13.328125 -66.46875 11.960938 -56.113281 11.796875 -44.3125 C 11.710938 -39.414062 11.851562 -34.9375 12.21875 -30.875 C 12.582031 -26.820312 13.164062 -22.992188 13.96875 -19.390625 L 13.96875 -19.265625 C 14.363281 -17.578125 14.800781 -15.828125 15.28125 -14.015625 C 15.769531 -12.210938 16.414062 -10.507812 17.21875 -8.90625 C 18.257812 -7.144531 19.546875 -5.78125 21.078125 -4.8125 C 22.035156 -4.25 22.957031 -3.867188 23.84375 -3.671875 C 24.726562 -3.472656 25.328125 -3.332031 25.640625 -3.25 C 25.804688 -3.25 25.925781 -3.25 26 -3.25 C 26.082031 -3.25 26.164062 -3.25 26.25 -3.25 C 26.96875 -3.25 27.691406 -3.367188 28.421875 -3.609375 C 28.816406 -3.691406 29.175781 -3.8125 29.5 -3.96875 C 29.820312 -4.132812 30.144531 -4.296875 30.46875 -4.453125 C 31.03125 -4.773438 31.671875 -5.335938 32.390625 -6.140625 C 32.472656 -6.546875 32.53125 -6.96875 32.5625 -7.40625 C 32.601562 -7.84375 32.625 -8.304688 32.625 -8.796875 L 32.625 -44.90625 C 32.625 -44.90625 32.625 -44.925781 32.625 -44.96875 C 32.625 -45.007812 32.625 -45.03125 32.625 -45.03125 L 23 -45.03125 L 23 -48.15625 L 46.234375 -48.15625 L 46.234375 -45.03125 L 42.859375 -45.03125 C 42.859375 -45.03125 42.859375 -45.007812 42.859375 -44.96875 C 42.859375 -44.925781 42.859375 -44.90625 42.859375 -44.90625 L 42.859375 -12.640625 C 42.617188 -11.117188 42.257812 -9.710938 41.78125 -8.421875 C 41.539062 -7.859375 41.257812 -7.253906 40.9375 -6.609375 C 40.613281 -5.972656 40.210938 -5.335938 39.734375 -4.703125 C 38.847656 -3.410156 37.601562 -2.285156 36 -1.328125 C 33.4375 0.203125 30.1875 0.96875 26.25 0.96875 Z M 26.25 0.96875 "/></g></g></g><g fill="#100f0d" fill-opacity="1"><g transform="translate(378.841995, 559.282644)"><g><path d="M 44.0625 -90.671875 L 39.734375 -90.671875 L 39.734375 -2.28125 L 44.0625 -2.28125 L 44.0625 -0.125 L 24.6875 -0.125 L 24.6875 -2.28125 L 29.265625 -2.28125 L 29.265625 -46.359375 L 15.046875 -46.359375 L 15.046875 -2.53125 L 19.390625 -2.53125 L 19.390625 -0.125 L 0 -0.125 L 0 -2.53125 L 4.578125 -2.53125 L 4.578125 -90.671875 L 0 -90.671875 L 0 -93.078125 L 19.390625 -93.078125 L 19.390625 -90.671875 L 15.046875 -90.671875 L 15.046875 -49.734375 L 29.265625 -49.734375 L 29.265625 -90.671875 L 24.6875 -90.671875 L 24.6875 -93.078125 L 44.0625 -93.078125 Z M 44.0625 -90.671875 "/></g></g></g><g fill="#100f0d" fill-opacity="1"><g transform="translate(427.126698, 559.282644)"><g><path d="M 44.90625 -93.3125 L 44.90625 -90.90625 L 39.609375 -90.90625 C 39.535156 -89.695312 39.359375 -88.128906 39.078125 -86.203125 C 38.796875 -84.285156 38.570312 -83.003906 38.40625 -82.359375 C 38.25 -80.992188 38.03125 -79.40625 37.75 -77.59375 C 37.46875 -75.789062 37.164062 -73.847656 36.84375 -71.765625 C 36.601562 -69.671875 36.320312 -67.457031 36 -65.125 C 35.675781 -62.800781 35.316406 -60.359375 34.921875 -57.796875 C 34.597656 -55.222656 34.273438 -52.613281 33.953125 -49.96875 C 33.628906 -47.320312 33.269531 -44.671875 32.875 -42.015625 C 32.070312 -35.992188 31.226562 -29.53125 30.34375 -22.625 C 29.457031 -15.726562 28.492188 -8.265625 27.453125 -0.234375 L 27.453125 0 L 18.1875 0 L 5.171875 -90.90625 L 0.71875 -90.90625 L 0.71875 -93.3125 L 20.109375 -93.3125 L 20.109375 -90.90625 L 15.765625 -90.90625 L 26.375 -23 L 35.28125 -90.90625 L 31.3125 -90.90625 L 31.3125 -93.3125 Z M 44.90625 -93.3125 "/></g></g></g><g fill="#100f0d" fill-opacity="1"><g transform="translate(474.327696, 559.282644)"><g><path d="M 19.390625 -90.546875 L 14.8125 -90.546875 L 14.8125 -33.46875 C 14.8125 -30.738281 14.8125 -28.191406 14.8125 -25.828125 C 14.8125 -23.460938 14.8125 -21.234375 14.8125 -19.140625 C 14.894531 -16.972656 14.9375 -14.984375 14.9375 -13.171875 C 14.9375 -11.367188 14.9375 -9.75 14.9375 -8.3125 L 14.9375 -2.890625 C 14.9375 -2.804688 14.9375 -2.722656 14.9375 -2.640625 C 14.9375 -2.566406 14.9375 -2.488281 14.9375 -2.40625 L 19.390625 -2.40625 L 19.390625 0 L 0 0 L 0 -2.40625 L 4.453125 -2.40625 C 4.453125 -2.488281 4.453125 -2.566406 4.453125 -2.640625 C 4.453125 -2.722656 4.453125 -2.804688 4.453125 -2.890625 L 4.453125 -90.546875 L 0 -90.546875 L 0 -92.953125 L 19.390625 -92.953125 Z M 19.390625 -90.546875 "/></g></g></g><g fill="#d66a12" fill-opacity="1"><g transform="translate(521.695518, 558.741536)"><g><path d="M 35.3125 -89.921875 C 38.6875 -87.585938 40.578125 -84.613281 40.984375 -81 L 40.734375 -63.15625 C 40.734375 -60.507812 39.8125 -57.898438 37.96875 -55.328125 C 36.113281 -52.910156 33.460938 -51.257812 30.015625 -50.375 C 27.765625 -49.5 25.632812 -48.816406 23.625 -48.328125 C 21.53125 -47.765625 19.484375 -46.84375 17.484375 -45.5625 C 17.160156 -45.394531 16.914062 -45.234375 16.75 -45.078125 L 16.75 -2.40625 L 20.859375 -2.40625 L 20.859375 0 L 1.453125 0 L 1.453125 -2.40625 L 6.03125 -2.40625 L 6.03125 -89.5625 C 6.03125 -89.71875 5.988281 -89.914062 5.90625 -90.15625 C 5.664062 -90.71875 5.34375 -91.039062 4.9375 -91.125 C 4.863281 -91.125 4.722656 -91.144531 4.515625 -91.1875 C 4.316406 -91.226562 4.140625 -91.25 3.984375 -91.25 C 3.816406 -91.25 3.613281 -91.265625 3.375 -91.296875 C 3.132812 -91.335938 2.851562 -91.359375 2.53125 -91.359375 L 0.234375 -91.359375 L 0.484375 -93.40625 L 23.984375 -93.40625 C 28.242188 -93.40625 32.019531 -92.242188 35.3125 -89.921875 Z M 30.734375 -60.75 L 30.734375 -83.171875 C 30.734375 -83.566406 30.734375 -83.984375 30.734375 -84.421875 C 30.734375 -84.867188 30.65625 -85.332031 30.5 -85.8125 C 30.332031 -86.695312 30.007812 -87.539062 29.53125 -88.34375 C 29.289062 -88.75 28.988281 -89.113281 28.625 -89.4375 C 28.257812 -89.757812 27.878906 -90.082031 27.484375 -90.40625 C 26.753906 -90.882812 25.707031 -91.125 24.34375 -91.125 L 16.75 -91.125 L 16.75 -47.609375 C 17.632812 -48.085938 18.578125 -48.566406 19.578125 -49.046875 C 20.585938 -49.535156 21.695312 -49.976562 22.90625 -50.375 C 23.144531 -50.457031 23.441406 -50.554688 23.796875 -50.671875 C 24.160156 -50.796875 24.585938 -50.898438 25.078125 -50.984375 C 25.953125 -51.222656 26.832031 -51.664062 27.71875 -52.3125 C 28.125 -52.707031 28.503906 -53.144531 28.859375 -53.625 C 29.222656 -54.113281 29.566406 -54.679688 29.890625 -55.328125 C 30.453125 -56.523438 30.734375 -58.332031 30.734375 -60.75 Z M 30.734375 -60.75 "/></g></g></g><g fill="#d66a12" fill-opacity="1"><g transform="translate(565.931406, 558.741536)"><g><path d="M 37.71875 -4.34375 C 38.125 -3.851562 38.828125 -3.207031 39.828125 -2.40625 C 40.835938 -1.601562 41.664062 -1.285156 42.3125 -1.453125 C 41.988281 -1.367188 41.6875 -1.285156 41.40625 -1.203125 C 41.125 -1.117188 40.820312 -1 40.5 -0.84375 C 40.019531 -0.757812 39.476562 -0.65625 38.875 -0.53125 C 38.269531 -0.414062 37.601562 -0.359375 36.875 -0.359375 C 33.75 -0.203125 31.378906 -0.882812 29.765625 -2.40625 C 28.398438 -3.53125 27.597656 -4.9375 27.359375 -6.625 C 27.273438 -6.382812 27.15625 -6.144531 27 -5.90625 C 26.84375 -5.664062 26.679688 -5.382812 26.515625 -5.0625 C 26.117188 -4.5 25.535156 -3.914062 24.765625 -3.3125 C 24.003906 -2.707031 23.019531 -2.085938 21.8125 -1.453125 C 21.09375 -1.046875 20.367188 -0.738281 19.640625 -0.53125 C 18.921875 -0.332031 18.203125 -0.195312 17.484375 -0.125 L 16.875 -0.125 C 16.789062 -0.125 16.6875 -0.101562 16.5625 -0.0625 C 16.445312 -0.0195312 16.3125 0 16.15625 0 C 15.832031 0 15.507812 -0.078125 15.1875 -0.234375 C 14.863281 -0.316406 14.582031 -0.378906 14.34375 -0.421875 C 14.101562 -0.460938 13.820312 -0.484375 13.5 -0.484375 L 13.375 -0.609375 C 13.050781 -0.765625 12.769531 -0.84375 12.53125 -0.84375 C 12.375 -0.925781 12.191406 -0.984375 11.984375 -1.015625 C 11.785156 -1.054688 11.609375 -1.117188 11.453125 -1.203125 C 9.203125 -2.171875 7.429688 -3.414062 6.140625 -4.9375 C 4.859375 -6.46875 3.9375 -7.875 3.375 -9.15625 C 2.8125 -10.519531 2.53125 -11.566406 2.53125 -12.296875 L 2.53125 -52.4375 L 0 -52.4375 L 0 -54.84375 L 15.796875 -54.84375 L 15.796875 -52.4375 L 12.65625 -52.4375 C 12.65625 -52.351562 12.65625 -52.226562 12.65625 -52.0625 C 12.65625 -51.90625 12.65625 -51.75 12.65625 -51.59375 C 12.65625 -50.382812 12.65625 -49.175781 12.65625 -47.96875 C 12.65625 -46.757812 12.65625 -45.515625 12.65625 -44.234375 C 12.65625 -42.460938 12.65625 -40.710938 12.65625 -38.984375 C 12.65625 -37.265625 12.65625 -35.5625 12.65625 -33.875 C 12.65625 -32.019531 12.65625 -30.1875 12.65625 -28.375 C 12.65625 -26.570312 12.65625 -24.75 12.65625 -22.90625 C 12.65625 -21.457031 12.65625 -19.988281 12.65625 -18.5 C 12.65625 -17.007812 12.65625 -15.546875 12.65625 -14.109375 C 12.65625 -12.816406 12.613281 -11.523438 12.53125 -10.234375 C 12.457031 -8.953125 12.5 -7.710938 12.65625 -6.515625 C 12.738281 -6.191406 12.816406 -5.847656 12.890625 -5.484375 C 12.972656 -5.117188 13.132812 -4.773438 13.375 -4.453125 C 13.863281 -3.972656 14.507812 -3.535156 15.3125 -3.140625 C 16.113281 -2.648438 17.117188 -2.488281 18.328125 -2.65625 C 19.523438 -2.8125 20.488281 -3.171875 21.21875 -3.734375 C 22.5 -4.460938 23.742188 -5.585938 24.953125 -7.109375 C 26.160156 -8.710938 26.765625 -10.398438 26.765625 -12.171875 L 26.765625 -52.4375 L 23.984375 -52.4375 L 23.984375 -54.84375 L 39.78125 -54.84375 L 39.78125 -52.4375 L 37 -52.4375 C 37 -51.945312 37 -51.476562 37 -51.03125 C 37 -50.59375 37 -50.375 37 -50.375 C 37 -46.6875 37 -43.03125 37 -39.40625 C 37 -35.789062 37 -32.175781 37 -28.5625 C 37 -26.550781 37 -24.539062 37 -22.53125 C 37 -20.53125 37 -18.523438 37 -16.515625 C 37 -15.710938 37 -14.90625 37 -14.09375 C 37 -13.289062 37 -12.488281 37 -11.6875 C 37 -10.488281 36.957031 -9.222656 36.875 -7.890625 C 36.800781 -6.566406 37.082031 -5.382812 37.71875 -4.34375 Z M 37.71875 -4.34375 "/></g></g></g><g fill="#d66a12" fill-opacity="1"><g transform="translate(611.854755, 558.741536)"><g><path d="M 36.40625 -46.046875 C 36.882812 -44.835938 37.125 -43.789062 37.125 -42.90625 L 37.125 -12.421875 C 36.882812 -11.046875 36.519531 -9.675781 36.03125 -8.3125 C 35.789062 -7.75 35.507812 -7.1875 35.1875 -6.625 C 34.875 -6.0625 34.472656 -5.460938 33.984375 -4.828125 C 33.179688 -3.617188 31.898438 -2.53125 30.140625 -1.5625 C 27.640625 -0.0390625 24.503906 0.71875 20.734375 0.71875 L 20.015625 0.71875 C 17.515625 0.71875 15.582031 0.195312 14.21875 -0.84375 C 13.019531 -1.8125 11.976562 -2.976562 11.09375 -4.34375 C 10.363281 -3.21875 9.960938 -2.65625 9.890625 -2.65625 C 9.722656 -2.332031 9.457031 -2.066406 9.09375 -1.859375 C 8.738281 -1.660156 8.316406 -1.441406 7.828125 -1.203125 C 7.347656 -0.960938 6.867188 -0.78125 6.390625 -0.65625 C 5.910156 -0.539062 5.425781 -0.398438 4.9375 -0.234375 C 4.613281 -0.160156 4.269531 -0.125 3.90625 -0.125 C 3.550781 -0.125 3.171875 -0.125 2.765625 -0.125 C 2.691406 -2.207031 2.710938 -4.289062 2.828125 -6.375 C 2.953125 -8.46875 3.015625 -10.5625 3.015625 -12.65625 C 3.015625 -14.019531 3.015625 -15.34375 3.015625 -16.625 C 3.015625 -17.914062 3.015625 -19.203125 3.015625 -20.484375 C 3.015625 -22.171875 3.015625 -23.859375 3.015625 -25.546875 C 3.015625 -27.234375 3.015625 -28.921875 3.015625 -30.609375 C 3.015625 -32.460938 3.015625 -34.332031 3.015625 -36.21875 C 3.015625 -38.101562 3.015625 -39.972656 3.015625 -41.828125 C 3.015625 -43.835938 3.015625 -45.828125 3.015625 -47.796875 C 3.015625 -49.765625 3.015625 -51.710938 3.015625 -53.640625 C 3.015625 -55.566406 3.015625 -57.492188 3.015625 -59.421875 C 3.015625 -61.347656 3.015625 -63.238281 3.015625 -65.09375 C 3.015625 -66.851562 3.015625 -68.578125 3.015625 -70.265625 C 3.015625 -71.953125 3.015625 -73.679688 3.015625 -75.453125 C 3.015625 -76.816406 3.015625 -78.203125 3.015625 -79.609375 C 3.015625 -81.015625 3.015625 -82.398438 3.015625 -83.765625 C 3.015625 -84.734375 3.015625 -85.675781 3.015625 -86.59375 C 3.015625 -87.519531 3.015625 -88.46875 3.015625 -89.4375 C 3.015625 -89.832031 3.015625 -90.191406 3.015625 -90.515625 C 3.015625 -90.835938 3.015625 -91.160156 3.015625 -91.484375 L -0.484375 -91.484375 L -0.484375 -93.890625 L 17.484375 -93.890625 L 17.484375 -91.484375 L 13.5 -91.484375 L 13.5 -52.546875 C 13.820312 -52.953125 14.179688 -53.273438 14.578125 -53.515625 C 14.984375 -53.753906 15.390625 -53.992188 15.796875 -54.234375 C 16.835938 -54.878906 18.160156 -55.203125 19.765625 -55.203125 L 20.484375 -55.203125 C 23.222656 -55.203125 25.4375 -54.921875 27.125 -54.359375 C 28.726562 -53.796875 30.253906 -53.070312 31.703125 -52.1875 C 32.335938 -51.707031 32.914062 -51.222656 33.4375 -50.734375 C 33.96875 -50.253906 34.394531 -49.695312 34.71875 -49.0625 C 35.113281 -48.5 35.453125 -47.972656 35.734375 -47.484375 C 36.015625 -47.003906 36.238281 -46.523438 36.40625 -46.046875 Z M 27.234375 -7.359375 L 27.234375 -47.484375 C 27.160156 -47.972656 26.921875 -48.578125 26.515625 -49.296875 C 26.117188 -50.097656 25.597656 -50.820312 24.953125 -51.46875 C 24.066406 -52.113281 23.300781 -52.554688 22.65625 -52.796875 C 21.851562 -53.035156 21.210938 -53.15625 20.734375 -53.15625 C 20.410156 -53.15625 20.046875 -53.132812 19.640625 -53.09375 C 19.242188 -53.050781 18.765625 -52.988281 18.203125 -52.90625 C 17.234375 -52.664062 16.269531 -52.226562 15.3125 -51.59375 C 14.425781 -50.707031 13.820312 -49.582031 13.5 -48.21875 L 13.5 -7.953125 L 13.265625 -7.953125 L 13.265625 -6.984375 C 13.421875 -6.742188 13.578125 -6.484375 13.734375 -6.203125 C 13.898438 -5.921875 14.023438 -5.582031 14.109375 -5.1875 C 14.347656 -4.539062 14.785156 -3.816406 15.421875 -3.015625 C 17.191406 -1.890625 18.640625 -1.328125 19.765625 -1.328125 C 20.410156 -1.328125 21.253906 -1.445312 22.296875 -1.6875 C 23.335938 -1.769531 24.300781 -2.210938 25.1875 -3.015625 C 25.988281 -3.734375 26.59375 -4.773438 27 -6.140625 C 27.082031 -6.390625 27.140625 -6.613281 27.171875 -6.8125 C 27.210938 -7.007812 27.234375 -7.191406 27.234375 -7.359375 Z M 27.234375 -7.359375 "/></g></g></g><g fill="#d66a12" fill-opacity="1"><g transform="translate(653.318364, 558.741536)"><g><path d="M 17.71875 -91 L 13.734375 -91 L 13.734375 -2.40625 L 16.75 -2.40625 L 16.75 0 L 0.234375 0 L 0.234375 -2.40625 L 3.375 -2.40625 L 3.375 -91 L 0 -91 L 0 -93.40625 L 17.71875 -93.40625 Z M 17.71875 -91 "/></g></g></g><g fill="#d66a12" fill-opacity="1"><g transform="translate(676.099242, 558.741536)"><g><path d="M 4.21875 -73.046875 C 3.007812 -74.003906 2.40625 -75.25 2.40625 -76.78125 C 2.40625 -78.300781 3.007812 -79.546875 4.21875 -80.515625 C 5.5 -81.554688 7.066406 -82.078125 8.921875 -82.078125 C 10.847656 -82.078125 12.375 -81.554688 13.5 -80.515625 C 14.78125 -79.472656 15.421875 -78.226562 15.421875 -76.78125 C 15.421875 -75.332031 14.78125 -74.085938 13.5 -73.046875 C 12.375 -71.992188 10.847656 -71.46875 8.921875 -71.46875 C 7.066406 -71.46875 5.5 -71.992188 4.21875 -73.046875 Z M 13.734375 -2.40625 L 16.515625 -2.40625 L 16.515625 0 L 0.71875 0 L 0.71875 -2.40625 L 3.609375 -2.40625 L 3.609375 -45.078125 C 3.609375 -45.234375 3.570312 -45.4375 3.5 -45.6875 C 3.257812 -46.082031 2.9375 -46.363281 2.53125 -46.53125 L 0.125 -46.53125 L 0.125 -48.453125 L 0.234375 -48.578125 C 0.722656 -48.972656 1.445312 -49.453125 2.40625 -50.015625 C 2.8125 -50.253906 3.273438 -50.535156 3.796875 -50.859375 C 4.316406 -51.179688 4.898438 -51.546875 5.546875 -51.953125 C 6.191406 -52.347656 6.914062 -52.828125 7.71875 -53.390625 C 8.519531 -53.953125 9.441406 -54.554688 10.484375 -55.203125 C 11.609375 -55.921875 12.453125 -56 13.015625 -55.4375 C 13.492188 -54.957031 13.734375 -54.316406 13.734375 -53.515625 Z M 13.734375 -2.40625 "/></g></g></g><g fill="#d66a12" fill-opacity="1"><g transform="translate(696.831027, 558.741536)"><g><path d="M 29.046875 -40.625 C 28.398438 -41.019531 28 -41.679688 27.84375 -42.609375 C 27.6875 -43.535156 27.484375 -44.640625 27.234375 -45.921875 C 26.992188 -47.203125 26.429688 -48.53125 25.546875 -49.90625 C 25.148438 -50.707031 24.550781 -51.390625 23.75 -51.953125 C 22.695312 -52.585938 21.609375 -53.03125 20.484375 -53.28125 C 19.203125 -53.519531 18.238281 -53.640625 17.59375 -53.640625 C 17.269531 -53.640625 16.925781 -53.617188 16.5625 -53.578125 C 16.207031 -53.535156 15.75 -53.472656 15.1875 -53.390625 C 14.300781 -53.316406 13.378906 -52.914062 12.421875 -52.1875 C 11.609375 -51.144531 11.003906 -50.019531 10.609375 -48.8125 C 10.523438 -48.570312 10.460938 -48.347656 10.421875 -48.140625 C 10.378906 -47.941406 10.359375 -47.765625 10.359375 -47.609375 L 10.359375 -8.921875 C 10.441406 -7.796875 11.085938 -6.75 12.296875 -5.78125 C 12.941406 -5.382812 13.582031 -5.046875 14.21875 -4.765625 C 14.863281 -4.484375 15.585938 -4.300781 16.390625 -4.21875 C 17.035156 -4.132812 17.757812 -4.113281 18.5625 -4.15625 C 19.363281 -4.195312 20.25 -4.257812 21.21875 -4.34375 C 23.0625 -4.414062 24.628906 -5.097656 25.921875 -6.390625 C 27.117188 -7.347656 27.960938 -8.429688 28.453125 -9.640625 C 28.929688 -11.003906 29.289062 -12.25 29.53125 -13.375 C 29.6875 -14.019531 29.765625 -14.703125 29.765625 -15.421875 C 29.765625 -16.148438 29.765625 -16.835938 29.765625 -17.484375 L 29.65625 -17.71875 L 29.890625 -17.84375 C 30.054688 -17.84375 30.238281 -17.859375 30.4375 -17.890625 C 30.632812 -17.929688 31.015625 -17.992188 31.578125 -18.078125 C 31.984375 -18.078125 32.34375 -18.078125 32.65625 -18.078125 C 32.976562 -18.078125 33.179688 -18.078125 33.265625 -18.078125 L 33.5 -18.078125 L 33.5 -17.84375 C 33.582031 -17.039062 33.625 -16.234375 33.625 -15.421875 C 33.625 -14.617188 33.546875 -13.898438 33.390625 -13.265625 C 33.304688 -12.617188 33.160156 -11.953125 32.953125 -11.265625 C 32.753906 -10.585938 32.578125 -9.925781 32.421875 -9.28125 C 31.859375 -7.832031 31.21875 -6.664062 30.5 -5.78125 C 28.882812 -3.769531 26.832031 -2.285156 24.34375 -1.328125 C 21.9375 -0.441406 19.769531 0 17.84375 0 L 17.109375 0 C 14.460938 0 12.210938 -0.238281 10.359375 -0.71875 C 8.515625 -1.28125 6.910156 -2.003906 5.546875 -2.890625 C 4.335938 -3.773438 3.375 -4.738281 2.65625 -5.78125 C 2.332031 -6.34375 2.007812 -6.863281 1.6875 -7.34375 C 1.363281 -7.832031 1.125 -8.316406 0.96875 -8.796875 C 0.5625 -9.441406 0.359375 -10.40625 0.359375 -11.6875 C 0.273438 -12.25 0.234375 -12.75 0.234375 -13.1875 C 0.234375 -13.632812 0.234375 -13.941406 0.234375 -14.109375 L 0.234375 -42.78125 C 0.484375 -44.15625 0.847656 -45.523438 1.328125 -46.890625 C 1.566406 -47.453125 1.863281 -48.015625 2.21875 -48.578125 C 2.582031 -49.140625 3.007812 -49.738281 3.5 -50.375 C 4.457031 -51.582031 5.78125 -52.671875 7.46875 -53.640625 C 9.800781 -55.160156 12.9375 -55.921875 16.875 -55.921875 L 17.484375 -55.921875 C 19.890625 -55.921875 22.175781 -55.601562 24.34375 -54.96875 C 26.351562 -54.238281 28.003906 -53.394531 29.296875 -52.4375 C 29.929688 -51.945312 30.550781 -51.441406 31.15625 -50.921875 C 31.757812 -50.398438 32.257812 -49.816406 32.65625 -49.171875 C 33.539062 -48.046875 34.101562 -47.003906 34.34375 -46.046875 C 34.507812 -45.804688 34.59375 -45.582031 34.59375 -45.375 C 34.59375 -45.175781 34.632812 -44.957031 34.71875 -44.71875 C 34.71875 -44.632812 34.675781 -44.269531 34.59375 -43.625 C 34.507812 -42.988281 34.1875 -42.347656 33.625 -41.703125 C 33.0625 -41.140625 32.316406 -40.738281 31.390625 -40.5 C 30.472656 -40.257812 29.691406 -40.300781 29.046875 -40.625 Z M 29.046875 -40.625 "/></g></g></g><g fill="#d66a12" fill-opacity="1"><g transform="translate(733.955401, 558.741536)"><g><path d="M 36.03125 0.125 C 35.789062 0.125 35.550781 0.125 35.3125 0.125 C 35.070312 0.125 34.832031 0.125 34.59375 0.125 C 31.78125 0.363281 29.488281 -0.28125 27.71875 -1.8125 C 26.269531 -3.007812 25.425781 -4.492188 25.1875 -6.265625 C 25.113281 -6.023438 24.972656 -5.765625 24.765625 -5.484375 C 24.566406 -5.203125 24.390625 -4.898438 24.234375 -4.578125 C 23.347656 -3.296875 21.78125 -2.050781 19.53125 -0.84375 C 17.914062 0.0390625 16.226562 0.484375 14.46875 0.484375 C 14.46875 0.484375 14.445312 0.484375 14.40625 0.484375 C 14.363281 0.484375 14.300781 0.484375 14.21875 0.484375 C 12.375 0.484375 10.929688 0.28125 9.890625 -0.125 C 6.992188 -1.25 4.617188 -3.015625 2.765625 -5.421875 C 1.003906 -7.992188 0.0820312 -11.085938 0 -14.703125 C -0.0820312 -16.066406 0.0351562 -17.753906 0.359375 -19.765625 C 0.597656 -21.617188 1.398438 -23.425781 2.765625 -25.1875 C 3.015625 -25.425781 3.257812 -25.6875 3.5 -25.96875 C 3.738281 -26.25 3.976562 -26.515625 4.21875 -26.765625 C 4.539062 -27.078125 4.878906 -27.351562 5.234375 -27.59375 C 5.597656 -27.84375 5.984375 -28.128906 6.390625 -28.453125 C 7.347656 -29.085938 8.515625 -29.726562 9.890625 -30.375 C 10.609375 -30.769531 11.410156 -31.171875 12.296875 -31.578125 C 13.179688 -31.984375 14.144531 -32.46875 15.1875 -33.03125 C 16.3125 -33.664062 17.332031 -34.179688 18.25 -34.578125 C 19.175781 -34.984375 20.003906 -35.347656 20.734375 -35.671875 C 21.378906 -35.992188 22 -36.394531 22.59375 -36.875 C 23.195312 -37.363281 23.820312 -37.890625 24.46875 -38.453125 L 24.46875 -47.25 C 24.46875 -48.207031 24.226562 -48.929688 23.75 -49.421875 C 23.507812 -49.816406 23.226562 -50.132812 22.90625 -50.375 C 22.582031 -50.625 22.21875 -50.867188 21.8125 -51.109375 C 21.488281 -51.347656 21.125 -51.546875 20.71875 -51.703125 C 20.320312 -51.867188 19.925781 -51.988281 19.53125 -52.0625 C 18.800781 -52.3125 18.15625 -52.4375 17.59375 -52.4375 C 15.425781 -52.4375 13.578125 -52.113281 12.046875 -51.46875 C 10.679688 -50.820312 9.757812 -50.140625 9.28125 -49.421875 C 9.039062 -49.179688 8.757812 -48.617188 8.4375 -47.734375 C 8.195312 -47.085938 8.195312 -46.5625 8.4375 -46.15625 C 8.59375 -45.914062 8.734375 -45.65625 8.859375 -45.375 C 8.984375 -45.09375 9.164062 -44.753906 9.40625 -44.359375 C 9.800781 -43.390625 10 -42.625 10 -42.0625 C 9.757812 -40.050781 8.515625 -38.6875 6.265625 -37.96875 C 4.898438 -37.644531 3.613281 -37.882812 2.40625 -38.6875 C 1.207031 -39.65625 0.484375 -40.539062 0.234375 -41.34375 C -0.00390625 -42.789062 0.398438 -44.519531 1.453125 -46.53125 C 2.492188 -48.457031 4.582031 -50.382812 7.71875 -52.3125 C 9.238281 -53.351562 10.84375 -54.035156 12.53125 -54.359375 C 14.382812 -54.765625 16.113281 -54.96875 17.71875 -54.96875 C 20.445312 -54.96875 22.695312 -54.6875 24.46875 -54.125 C 26.394531 -53.476562 27.921875 -52.710938 29.046875 -51.828125 C 29.691406 -51.421875 30.273438 -50.957031 30.796875 -50.4375 C 31.316406 -49.914062 31.738281 -49.375 32.0625 -48.8125 C 32.457031 -48.25 32.773438 -47.707031 33.015625 -47.1875 C 33.265625 -46.664062 33.46875 -46.164062 33.625 -45.6875 C 33.789062 -45.4375 33.910156 -44.953125 33.984375 -44.234375 C 34.148438 -43.671875 34.269531 -42.945312 34.34375 -42.0625 C 34.34375 -41.738281 34.363281 -41.414062 34.40625 -41.09375 C 34.445312 -40.78125 34.46875 -40.460938 34.46875 -40.140625 C 34.550781 -39.816406 34.59375 -39.550781 34.59375 -39.34375 C 34.59375 -39.144531 34.59375 -38.96875 34.59375 -38.8125 L 34.59375 -5.421875 C 34.425781 -4.941406 34.46875 -4.582031 34.71875 -4.34375 C 34.789062 -4.257812 34.867188 -4.132812 34.953125 -3.96875 C 35.035156 -3.8125 35.15625 -3.65625 35.3125 -3.5 C 35.550781 -3.257812 35.832031 -3.097656 36.15625 -3.015625 C 36.476562 -2.929688 36.71875 -2.769531 36.875 -2.53125 C 37.195312 -2.125 37.28125 -1.722656 37.125 -1.328125 C 37.125 -0.679688 36.757812 -0.195312 36.03125 0.125 Z M 24.46875 -11.203125 L 24.46875 -35.4375 C 23.664062 -34.632812 22.660156 -33.953125 21.453125 -33.390625 C 20.648438 -32.984375 19.765625 -32.476562 18.796875 -31.875 C 17.835938 -31.269531 16.796875 -30.609375 15.671875 -29.890625 C 13.816406 -28.679688 12.53125 -26.875 11.8125 -24.46875 C 11.007812 -22.132812 10.609375 -19.84375 10.609375 -17.59375 L 10.609375 -9.765625 C 10.609375 -8.316406 10.726562 -6.910156 10.96875 -5.546875 C 11.207031 -4.335938 12.007812 -3.410156 13.375 -2.765625 C 14.175781 -2.285156 15.140625 -2.128906 16.265625 -2.296875 C 16.828125 -2.453125 17.367188 -2.609375 17.890625 -2.765625 C 18.421875 -2.929688 18.882812 -3.175781 19.28125 -3.5 C 20.570312 -4.300781 21.738281 -5.34375 22.78125 -6.625 C 23.90625 -7.914062 24.46875 -9.441406 24.46875 -11.203125 Z M 24.46875 -11.203125 "/></g></g></g><g fill="#d66a12" fill-opacity="1"><g transform="translate(774.093142, 558.741536)"><g><path d="M 6.625 -10.84375 C 6.300781 -12.207031 6.140625 -13.816406 6.140625 -15.671875 C 6.304688 -22.335938 6.347656 -29.003906 6.265625 -35.671875 C 6.179688 -42.347656 6.140625 -48.976562 6.140625 -55.5625 L -0.71875 -55.5625 L -0.71875 -57.96875 L -0.359375 -57.96875 C 0.117188 -57.96875 0.578125 -57.96875 1.015625 -57.96875 C 1.460938 -57.96875 1.925781 -58.007812 2.40625 -58.09375 C 2.8125 -58.175781 3.210938 -58.253906 3.609375 -58.328125 C 4.015625 -58.410156 4.421875 -58.492188 4.828125 -58.578125 C 5.703125 -58.898438 6.34375 -59.257812 6.75 -59.65625 C 7.789062 -60.539062 8.710938 -61.75 9.515625 -63.28125 C 9.921875 -63.925781 10.242188 -64.585938 10.484375 -65.265625 C 10.722656 -65.953125 10.960938 -66.613281 11.203125 -67.25 C 11.453125 -68.0625 11.695312 -68.828125 11.9375 -69.546875 C 12.175781 -70.265625 12.335938 -70.988281 12.421875 -71.71875 L 12.53125 -71.953125 L 16.640625 -71.953125 L 16.640625 -57.96875 L 28.6875 -57.96875 L 28.6875 -55.5625 L 16.640625 -55.5625 C 16.640625 -53.957031 16.640625 -52.332031 16.640625 -50.6875 C 16.640625 -49.039062 16.640625 -47.375 16.640625 -45.6875 C 16.640625 -42.707031 16.640625 -39.671875 16.640625 -36.578125 C 16.640625 -33.484375 16.640625 -30.410156 16.640625 -27.359375 C 16.640625 -25.910156 16.640625 -24.441406 16.640625 -22.953125 C 16.640625 -21.472656 16.640625 -20.007812 16.640625 -18.5625 C 16.640625 -17.84375 16.65625 -17.097656 16.6875 -16.328125 C 16.726562 -15.566406 16.75 -14.785156 16.75 -13.984375 C 16.75 -12.453125 16.828125 -10.898438 16.984375 -9.328125 C 17.148438 -7.765625 17.65625 -6.421875 18.5 -5.296875 C 19.34375 -4.171875 20.769531 -3.53125 22.78125 -3.375 C 24.144531 -3.21875 25.628906 -3.617188 27.234375 -4.578125 C 28.921875 -5.460938 30.488281 -7.191406 31.9375 -9.765625 L 32.1875 -10.125 L 32.421875 -9.890625 C 32.742188 -9.722656 33.023438 -9.597656 33.265625 -9.515625 C 33.742188 -9.273438 34.101562 -9.15625 34.34375 -9.15625 L 34.953125 -9.15625 L 34.71875 -8.671875 C 33.988281 -7.304688 33.222656 -6.179688 32.421875 -5.296875 C 32.097656 -4.734375 31.695312 -4.25 31.21875 -3.84375 C 30.738281 -3.445312 30.296875 -3.050781 29.890625 -2.65625 C 28.679688 -1.601562 27.273438 -0.878906 25.671875 -0.484375 C 23.984375 -0.160156 22.234375 0 20.421875 0 C 18.617188 0 16.875 -0.28125 15.1875 -0.84375 C 12.613281 -1.644531 10.644531 -2.929688 9.28125 -4.703125 C 7.914062 -6.472656 7.03125 -8.519531 6.625 -10.84375 Z M 6.625 -10.84375 "/></g></g></g><g fill="#d66a12" fill-opacity="1"><g transform="translate(809.530055, 558.741536)"><g><path d="M 4.21875 -73.046875 C 3.007812 -74.003906 2.40625 -75.25 2.40625 -76.78125 C 2.40625 -78.300781 3.007812 -79.546875 4.21875 -80.515625 C 5.5 -81.554688 7.066406 -82.078125 8.921875 -82.078125 C 10.847656 -82.078125 12.375 -81.554688 13.5 -80.515625 C 14.78125 -79.472656 15.421875 -78.226562 15.421875 -76.78125 C 15.421875 -75.332031 14.78125 -74.085938 13.5 -73.046875 C 12.375 -71.992188 10.847656 -71.46875 8.921875 -71.46875 C 7.066406 -71.46875 5.5 -71.992188 4.21875 -73.046875 Z M 13.734375 -2.40625 L 16.515625 -2.40625 L 16.515625 0 L 0.71875 0 L 0.71875 -2.40625 L 3.609375 -2.40625 L 3.609375 -45.078125 C 3.609375 -45.234375 3.570312 -45.4375 3.5 -45.6875 C 3.257812 -46.082031 2.9375 -46.363281 2.53125 -46.53125 L 0.125 -46.53125 L 0.125 -48.453125 L 0.234375 -48.578125 C 0.722656 -48.972656 1.445312 -49.453125 2.40625 -50.015625 C 2.8125 -50.253906 3.273438 -50.535156 3.796875 -50.859375 C 4.316406 -51.179688 4.898438 -51.546875 5.546875 -51.953125 C 6.191406 -52.347656 6.914062 -52.828125 7.71875 -53.390625 C 8.519531 -53.953125 9.441406 -54.554688 10.484375 -55.203125 C 11.609375 -55.921875 12.453125 -56 13.015625 -55.4375 C 13.492188 -54.957031 13.734375 -54.316406 13.734375 -53.515625 Z M 13.734375 -2.40625 "/></g></g></g><g fill="#d66a12" fill-opacity="1"><g transform="translate(830.261841, 558.741536)"><g><path d="M 33.75 -46.53125 C 34.3125 -45.476562 34.59375 -44.472656 34.59375 -43.515625 L 34.59375 -12.890625 C 34.351562 -11.453125 33.988281 -10.128906 33.5 -8.921875 C 33.101562 -7.878906 32.421875 -6.671875 31.453125 -5.296875 C 30.492188 -4.097656 29.171875 -3.015625 27.484375 -2.046875 C 24.828125 -0.523438 21.734375 0.234375 18.203125 0.234375 L 17.484375 0.234375 C 16.191406 0.234375 14.984375 0.15625 13.859375 0 C 12.734375 -0.15625 11.691406 -0.394531 10.734375 -0.71875 C 9.847656 -1.039062 9.019531 -1.398438 8.25 -1.796875 C 7.488281 -2.203125 6.785156 -2.609375 6.140625 -3.015625 C 4.859375 -3.972656 3.859375 -4.976562 3.140625 -6.03125 C 2.816406 -6.507812 2.515625 -7.007812 2.234375 -7.53125 C 1.953125 -8.050781 1.726562 -8.554688 1.5625 -9.046875 C 0.925781 -10.566406 0.609375 -11.566406 0.609375 -12.046875 L 0.609375 -42.671875 C 0.847656 -44.035156 1.207031 -45.359375 1.6875 -46.640625 C 2.25 -47.847656 2.972656 -49.015625 3.859375 -50.140625 C 4.335938 -50.785156 4.914062 -51.390625 5.59375 -51.953125 C 6.28125 -52.515625 7.023438 -52.992188 7.828125 -53.390625 C 10.398438 -55.003906 13.535156 -55.8125 17.234375 -55.8125 L 17.84375 -55.8125 C 20.332031 -55.8125 22.539062 -55.488281 24.46875 -54.84375 C 25.351562 -54.601562 26.195312 -54.28125 27 -53.875 C 27.800781 -53.476562 28.523438 -53.078125 29.171875 -52.671875 C 29.816406 -52.191406 30.378906 -51.707031 30.859375 -51.21875 C 31.335938 -50.738281 31.738281 -50.21875 32.0625 -49.65625 C 32.863281 -48.445312 33.425781 -47.40625 33.75 -46.53125 Z M 10.734375 -47.734375 C 10.734375 -46.679688 10.734375 -45.632812 10.734375 -44.59375 C 10.734375 -43.550781 10.734375 -42.507812 10.734375 -41.46875 C 10.734375 -38.96875 10.734375 -36.472656 10.734375 -33.984375 C 10.734375 -31.492188 10.734375 -29.003906 10.734375 -26.515625 C 10.734375 -24.109375 10.734375 -21.71875 10.734375 -19.34375 C 10.734375 -16.976562 10.734375 -14.585938 10.734375 -12.171875 C 10.734375 -11.523438 10.734375 -10.859375 10.734375 -10.171875 C 10.734375 -9.492188 10.734375 -8.835938 10.734375 -8.203125 C 10.890625 -6.515625 11.585938 -5.046875 12.828125 -3.796875 C 14.078125 -2.546875 15.546875 -1.921875 17.234375 -1.921875 C 17.554688 -1.921875 17.914062 -1.941406 18.3125 -1.984375 C 18.71875 -2.023438 19.160156 -2.085938 19.640625 -2.171875 C 20.609375 -2.253906 21.613281 -2.695312 22.65625 -3.5 C 23.300781 -4.0625 23.828125 -4.785156 24.234375 -5.671875 C 24.546875 -6.472656 24.679688 -7.3125 24.640625 -8.1875 C 24.609375 -9.070312 24.59375 -9.921875 24.59375 -10.734375 C 24.664062 -11.609375 24.703125 -12.488281 24.703125 -13.375 C 24.703125 -14.257812 24.703125 -15.144531 24.703125 -16.03125 C 24.703125 -17.632812 24.703125 -19.238281 24.703125 -20.84375 C 24.703125 -22.457031 24.703125 -24.023438 24.703125 -25.546875 C 24.703125 -27.234375 24.703125 -28.941406 24.703125 -30.671875 C 24.703125 -32.398438 24.703125 -34.109375 24.703125 -35.796875 C 24.703125 -37.160156 24.703125 -38.523438 24.703125 -39.890625 C 24.703125 -41.253906 24.703125 -42.625 24.703125 -44 C 24.703125 -44.632812 24.703125 -45.273438 24.703125 -45.921875 C 24.703125 -46.566406 24.664062 -47.171875 24.59375 -47.734375 C 24.507812 -48.128906 24.40625 -48.488281 24.28125 -48.8125 C 24.164062 -49.132812 24.023438 -49.457031 23.859375 -49.78125 C 23.617188 -50.582031 23.097656 -51.304688 22.296875 -51.953125 C 21.410156 -52.753906 20.609375 -53.195312 19.890625 -53.28125 C 19.160156 -53.519531 18.515625 -53.640625 17.953125 -53.640625 C 17.710938 -53.640625 17.390625 -53.617188 16.984375 -53.578125 C 16.585938 -53.535156 16.109375 -53.472656 15.546875 -53.390625 C 15.066406 -53.316406 14.582031 -53.175781 14.09375 -52.96875 C 13.613281 -52.769531 13.175781 -52.46875 12.78125 -52.0625 C 11.894531 -51.1875 11.289062 -50.0625 10.96875 -48.6875 C 10.8125 -48.207031 10.734375 -47.890625 10.734375 -47.734375 Z M 10.734375 -47.734375 "/></g></g></g><g fill="#d66a12" fill-opacity="1"><g transform="translate(869.073676, 558.741536)"><g><path d="M 38.9375 -5.0625 C 39.175781 -4.175781 39.613281 -3.472656 40.25 -2.953125 C 40.894531 -2.429688 41.519531 -2.007812 42.125 -1.6875 C 42.726562 -1.363281 42.988281 -1.039062 42.90625 -0.71875 C 42.820312 -0.476562 42.421875 -0.296875 41.703125 -0.171875 C 40.984375 -0.0546875 40.21875 0 39.40625 0 C 38.601562 0 38.082031 0 37.84375 0 C 36.800781 0 35.796875 -0.0976562 34.828125 -0.296875 C 33.867188 -0.503906 32.863281 -0.890625 31.8125 -1.453125 C 29.882812 -2.578125 28.921875 -4.265625 28.921875 -6.515625 L 28.921875 -47.84375 C 28.679688 -48.332031 28.441406 -48.9375 28.203125 -49.65625 C 28.046875 -50.0625 27.863281 -50.441406 27.65625 -50.796875 C 27.457031 -51.160156 27.160156 -51.503906 26.765625 -51.828125 C 26.679688 -51.910156 26.617188 -51.953125 26.578125 -51.953125 C 26.535156 -51.953125 26.515625 -51.953125 26.515625 -51.953125 C 26.515625 -51.953125 26.351562 -52.03125 26.03125 -52.1875 C 25.394531 -52.664062 24.710938 -53.03125 23.984375 -53.28125 C 23.660156 -53.351562 23.335938 -53.410156 23.015625 -53.453125 C 22.703125 -53.492188 22.382812 -53.515625 22.0625 -53.515625 C 21.820312 -53.515625 21.5 -53.492188 21.09375 -53.453125 C 20.6875 -53.410156 20.203125 -53.351562 19.640625 -53.28125 C 18.597656 -53.03125 17.632812 -52.546875 16.75 -51.828125 C 15.789062 -51.109375 15.191406 -50.023438 14.953125 -48.578125 C 14.953125 -48.492188 14.867188 -48.375 14.703125 -48.21875 C 14.703125 -48.21875 14.703125 -48.195312 14.703125 -48.15625 C 14.703125 -48.113281 14.703125 -48.050781 14.703125 -47.96875 L 14.703125 -2.53125 L 17.84375 -2.53125 L 17.84375 -0.125 L 2.046875 -0.125 L 2.046875 -2.53125 L 4.34375 -2.53125 L 4.34375 -44.59375 C 4.34375 -44.59375 4.34375 -44.648438 4.34375 -44.765625 C 4.34375 -44.890625 4.300781 -44.992188 4.21875 -45.078125 C 4.0625 -45.484375 3.738281 -45.804688 3.25 -46.046875 L 0.71875 -46.046875 L 0.71875 -47.96875 L 0.84375 -48.09375 C 1.164062 -48.25 1.503906 -48.445312 1.859375 -48.6875 C 2.222656 -48.9375 2.648438 -49.21875 3.140625 -49.53125 C 3.535156 -49.695312 4.015625 -49.957031 4.578125 -50.3125 C 5.140625 -50.675781 5.742188 -51.0625 6.390625 -51.46875 C 7.109375 -51.863281 7.890625 -52.34375 8.734375 -52.90625 C 9.578125 -53.46875 10.441406 -54.070312 11.328125 -54.71875 C 12.453125 -55.519531 13.335938 -55.601562 13.984375 -54.96875 C 14.460938 -54.40625 14.703125 -53.757812 14.703125 -53.03125 L 14.703125 -52.90625 C 15.265625 -53.46875 16.03125 -54.03125 17 -54.59375 C 18.039062 -55.238281 19.445312 -55.5625 21.21875 -55.5625 C 21.613281 -55.5625 22.007812 -55.5625 22.40625 -55.5625 C 22.8125 -55.5625 23.296875 -55.5625 23.859375 -55.5625 C 24.421875 -55.476562 24.90625 -55.4375 25.3125 -55.4375 C 25.71875 -55.4375 26.078125 -55.398438 26.390625 -55.328125 C 30.171875 -54.597656 32.863281 -53.351562 34.46875 -51.59375 C 35.351562 -50.707031 36.078125 -49.820312 36.640625 -48.9375 C 37.203125 -48.050781 37.644531 -47.207031 37.96875 -46.40625 C 38.613281 -45.28125 38.9375 -44.234375 38.9375 -43.265625 L 38.9375 -5.671875 C 38.9375 -5.585938 38.9375 -5.503906 38.9375 -5.421875 C 38.9375 -5.335938 38.9375 -5.21875 38.9375 -5.0625 Z M 38.9375 -5.0625 "/></g></g></g><g fill="#d66a12" fill-opacity="1"><g transform="translate(912.947933, 558.741536)"><g><path d="M 34.828125 -18.6875 C 35.066406 -17.320312 35.148438 -15.992188 35.078125 -14.703125 C 35.078125 -13.097656 34.832031 -11.570312 34.34375 -10.125 C 33.863281 -8.675781 33.144531 -7.226562 32.1875 -5.78125 C 31.21875 -4.332031 29.890625 -3.128906 28.203125 -2.171875 C 26.515625 -1.128906 24.707031 -0.363281 22.78125 0.125 C 21.007812 0.601562 19.242188 0.84375 17.484375 0.84375 C 15.472656 0.84375 13.742188 0.601562 12.296875 0.125 C 11.492188 -0.113281 10.75 -0.351562 10.0625 -0.59375 C 9.382812 -0.84375 8.722656 -1.046875 8.078125 -1.203125 L 6.390625 -1.921875 C 5.660156 -2.171875 5.015625 -2.171875 4.453125 -1.921875 C 4.140625 -1.847656 3.859375 -1.53125 3.609375 -0.96875 C 3.609375 -0.644531 3.609375 -0.484375 3.609375 -0.484375 L 3.984375 0 L 0.484375 0 L 0.359375 -15.546875 L 4.34375 -15.546875 L 4.34375 -15.3125 C 4.414062 -14.75 4.53125 -14.101562 4.6875 -13.375 C 4.851562 -12.65625 5.019531 -11.929688 5.1875 -11.203125 C 5.582031 -9.765625 6.265625 -8.519531 7.234375 -7.46875 C 8.117188 -6.425781 9.40625 -5.300781 11.09375 -4.09375 C 12.851562 -2.8125 14.941406 -2.128906 17.359375 -2.046875 C 20.566406 -2.046875 22.894531 -2.929688 24.34375 -4.703125 C 25.875 -6.472656 26.757812 -8.203125 27 -9.890625 C 27.238281 -11.890625 26.914062 -13.695312 26.03125 -15.3125 C 25.226562 -16.757812 24.1875 -18.164062 22.90625 -19.53125 C 22.582031 -19.769531 22.21875 -20.066406 21.8125 -20.421875 C 21.414062 -20.785156 20.894531 -21.128906 20.25 -21.453125 C 19.6875 -21.859375 19.101562 -22.257812 18.5 -22.65625 C 17.894531 -23.0625 17.273438 -23.425781 16.640625 -23.75 C 15.992188 -24.144531 15.367188 -24.503906 14.765625 -24.828125 C 14.160156 -25.148438 13.578125 -25.472656 13.015625 -25.796875 C 12.453125 -26.117188 11.988281 -26.378906 11.625 -26.578125 C 11.269531 -26.773438 11.007812 -26.914062 10.84375 -27 C 10.28125 -27.40625 9.65625 -27.804688 8.96875 -28.203125 C 8.289062 -28.609375 7.628906 -29.007812 6.984375 -29.40625 C 5.785156 -30.207031 4.742188 -31.050781 3.859375 -31.9375 C 3.378906 -32.34375 2.9375 -32.804688 2.53125 -33.328125 C 2.125 -33.847656 1.765625 -34.347656 1.453125 -34.828125 C 1.367188 -35.148438 1.222656 -35.53125 1.015625 -35.96875 C 0.816406 -36.414062 0.640625 -36.960938 0.484375 -37.609375 C 0.160156 -38.648438 0 -40.054688 0 -41.828125 C 0 -43.515625 0.28125 -45.160156 0.84375 -46.765625 C 1.488281 -48.453125 2.691406 -50.019531 4.453125 -51.46875 C 7.992188 -54.28125 12.015625 -55.566406 16.515625 -55.328125 C 18.523438 -55.328125 20.253906 -55.125 21.703125 -54.71875 C 24.515625 -54.070312 26.78125 -52.6875 28.5 -50.5625 C 30.226562 -48.4375 31.253906 -45.96875 31.578125 -43.15625 C 31.660156 -42.988281 31.738281 -42.484375 31.8125 -41.640625 C 31.894531 -40.796875 31.9375 -39.972656 31.9375 -39.171875 C 31.9375 -38.367188 31.859375 -37.96875 31.703125 -37.96875 L 27.71875 -37.96875 L 27.71875 -38.328125 C 27.71875 -39.691406 27.617188 -41.035156 27.421875 -42.359375 C 27.222656 -43.691406 26.757812 -44.957031 26.03125 -46.15625 C 25.46875 -47.28125 24.722656 -48.265625 23.796875 -49.109375 C 22.878906 -49.953125 21.859375 -50.695312 20.734375 -51.34375 C 19.367188 -52.3125 17.640625 -52.710938 15.546875 -52.546875 C 13.460938 -52.546875 11.734375 -52.304688 10.359375 -51.828125 C 9.078125 -51.347656 8.078125 -50.742188 7.359375 -50.015625 C 6.628906 -49.296875 6.144531 -48.570312 5.90625 -47.84375 C 5.664062 -47.125 5.625 -46.484375 5.78125 -45.921875 C 6.1875 -44.234375 7.113281 -42.664062 8.5625 -41.21875 C 9.363281 -40.414062 10.40625 -39.570312 11.6875 -38.6875 C 12.976562 -37.800781 14.503906 -36.878906 16.265625 -35.921875 C 16.585938 -35.835938 16.96875 -35.675781 17.40625 -35.4375 C 17.851562 -35.195312 18.398438 -34.875 19.046875 -34.46875 C 19.691406 -34.144531 20.351562 -33.78125 21.03125 -33.375 C 21.71875 -32.976562 22.421875 -32.582031 23.140625 -32.1875 C 23.785156 -31.78125 24.46875 -31.375 25.1875 -30.96875 C 25.914062 -30.570312 26.5625 -30.171875 27.125 -29.765625 C 27.757812 -29.285156 28.316406 -28.863281 28.796875 -28.5 C 29.285156 -28.144531 29.691406 -27.765625 30.015625 -27.359375 C 31.773438 -25.515625 32.9375 -23.988281 33.5 -22.78125 C 33.820312 -22.21875 34.101562 -21.59375 34.34375 -20.90625 C 34.59375 -20.226562 34.753906 -19.488281 34.828125 -18.6875 Z M 34.828125 -18.6875 "/></g></g></g></svg>