<svg xmlns="http://www.w3.org/2000/svg" xmlns:xlink="http://www.w3.org/1999/xlink" width="500" zoomAndPan="magnify" viewBox="0 0 375 374.999991" height="500" preserveAspectRatio="xMidYMid meet" version="1.0"><defs><g/><clipPath id="349302de56"><path d="M 65 183 L 96 183 L 96 213 L 65 213 Z M 65 183 " clip-rule="nonzero"/></clipPath><clipPath id="294ffac44b"><path d="M 73.3125 223.492188 L 55.371094 205.554688 L 88.15625 172.769531 L 106.09375 190.707031 Z M 73.3125 223.492188 " clip-rule="nonzero"/></clipPath><clipPath id="ddf63102db"><path d="M 55.277344 205.457031 L 73.214844 223.394531 L 106 190.609375 L 88.058594 172.671875 Z M 55.277344 205.457031 " clip-rule="nonzero"/></clipPath><clipPath id="1a4f791b03"><path d="M 37.5 148.648438 L 62.867188 148.648438 L 62.867188 212.507812 L 37.5 212.507812 Z M 37.5 148.648438 " clip-rule="nonzero"/></clipPath></defs><g clip-path="url(#349302de56)"><g clip-path="url(#294ffac44b)"><g clip-path="url(#ddf63102db)"><path fill="#0a608f" d="M 88.4375 205.554688 C 96.695312 197.300781 95.855469 183.082031 95.855469 183.082031 C 95.855469 183.082031 81.460938 182.066406 73.207031 190.324219 C 64.949219 198.578125 65.960938 212.972656 65.960938 212.972656 C 65.960938 212.972656 80.183594 213.8125 88.4375 205.554688 " fill-opacity="1" fill-rule="nonzero"/></g></g></g><g clip-path="url(#1a4f791b03)"><path fill="#0a608f" d="M 37.5 148.855469 L 37.5 187.027344 C 37.5 201.089844 48.898438 212.492188 62.964844 212.492188 L 62.964844 174.320312 C 62.964844 160.253906 51.5625 148.855469 37.5 148.855469 Z M 37.5 148.855469 " fill-opacity="1" fill-rule="nonzero"/></g><g fill="#0a608f" fill-opacity="1"><g transform="translate(108.28639, 211.210181)"><g><path d="M 5.0625 0 L 5.0625 -34.734375 L 9.125 -34.734375 L 22.78125 -14.140625 L 36.328125 -34.734375 L 40.390625 -34.734375 L 40.390625 0 L 36.03125 0 L 36.03125 -26.546875 L 24.515625 -9.234375 L 20.9375 -9.234375 L 9.421875 -26.59375 L 9.421875 0 Z M 5.0625 0 "/></g></g></g><g fill="#0a608f" fill-opacity="1"><g transform="translate(151.501898, 211.210181)"><g><path d="M 16.234375 0.640625 C 13.546875 0.640625 11.175781 0.0625 9.125 -1.09375 C 7.070312 -2.25 5.46875 -3.851562 4.3125 -5.90625 C 3.15625 -7.957031 2.578125 -10.289062 2.578125 -12.90625 C 2.578125 -15.550781 3.15625 -17.878906 4.3125 -19.890625 C 5.46875 -21.910156 7.070312 -23.5 9.125 -24.65625 C 11.175781 -25.820312 13.546875 -26.40625 16.234375 -26.40625 C 18.910156 -26.40625 21.273438 -25.820312 23.328125 -24.65625 C 25.378906 -23.5 26.984375 -21.910156 28.140625 -19.890625 C 29.296875 -17.878906 29.875 -15.550781 29.875 -12.90625 C 29.875 -10.289062 29.296875 -7.957031 28.140625 -5.90625 C 26.984375 -3.851562 25.378906 -2.25 23.328125 -1.09375 C 21.273438 0.0625 18.910156 0.640625 16.234375 0.640625 Z M 6.75 -12.90625 C 6.75 -11.019531 7.15625 -9.351562 7.96875 -7.90625 C 8.78125 -6.46875 9.894531 -5.351562 11.3125 -4.5625 C 12.738281 -3.769531 14.378906 -3.375 16.234375 -3.375 C 18.078125 -3.375 19.710938 -3.769531 21.140625 -4.5625 C 22.566406 -5.351562 23.679688 -6.46875 24.484375 -7.90625 C 25.296875 -9.351562 25.703125 -11.019531 25.703125 -12.90625 C 25.703125 -14.789062 25.296875 -16.441406 24.484375 -17.859375 C 23.679688 -19.285156 22.566406 -20.40625 21.140625 -21.21875 C 19.710938 -22.03125 18.078125 -22.4375 16.234375 -22.4375 C 14.378906 -22.4375 12.738281 -22.03125 11.3125 -21.21875 C 9.894531 -20.40625 8.78125 -19.285156 7.96875 -17.859375 C 7.15625 -16.441406 6.75 -14.789062 6.75 -12.90625 Z M 6.75 -12.90625 "/></g></g></g><g fill="#0a608f" fill-opacity="1"><g transform="translate(181.717859, 211.210181)"><g><path d="M 4.609375 0 L 4.609375 -25.75 L 8.046875 -25.75 L 8.484375 -21.984375 C 9.609375 -23.535156 10.972656 -24.660156 12.578125 -25.359375 C 14.179688 -26.054688 15.84375 -26.40625 17.5625 -26.40625 C 21.007812 -26.40625 23.691406 -25.3125 25.609375 -23.125 C 27.523438 -20.9375 28.484375 -18.007812 28.484375 -14.34375 L 28.484375 0 L 24.3125 0 L 24.3125 -13.9375 C 24.3125 -16.550781 23.65625 -18.617188 22.34375 -20.140625 C 21.039062 -21.671875 19.265625 -22.4375 17.015625 -22.4375 C 15.429688 -22.4375 14.019531 -22.046875 12.78125 -21.265625 C 11.539062 -20.484375 10.5625 -19.378906 9.84375 -17.953125 C 9.132812 -16.535156 8.78125 -14.882812 8.78125 -13 L 8.78125 0 Z M 4.609375 0 "/></g></g></g><g fill="#0a608f" fill-opacity="1"><g transform="translate(212.08266, 211.210181)"><g><path d="M 13.046875 0.390625 C 9.941406 0.390625 7.507812 -0.3125 5.75 -1.71875 C 4 -3.125 3.125 -5.03125 3.125 -7.4375 C 3.125 -9.789062 3.929688 -11.660156 5.546875 -13.046875 C 7.171875 -14.441406 9.328125 -15.140625 12.015625 -15.140625 L 22.53125 -15.140625 L 22.53125 -16.078125 C 22.53125 -18.097656 21.898438 -19.675781 20.640625 -20.8125 C 19.390625 -21.957031 17.671875 -22.53125 15.484375 -22.53125 C 13.828125 -22.53125 12.382812 -22.15625 11.15625 -21.40625 C 9.9375 -20.664062 9.113281 -19.664062 8.6875 -18.40625 L 4.46875 -18.40625 C 5.03125 -20.882812 6.296875 -22.835938 8.265625 -24.265625 C 10.234375 -25.691406 12.625 -26.40625 15.4375 -26.40625 C 17.6875 -26.40625 19.65625 -25.984375 21.34375 -25.140625 C 23.03125 -24.296875 24.34375 -23.117188 25.28125 -21.609375 C 26.226562 -20.109375 26.703125 -18.363281 26.703125 -16.375 L 26.703125 0 L 23.28125 0 L 22.828125 -3.578125 C 20.472656 -0.929688 17.210938 0.390625 13.046875 0.390625 Z M 7.296875 -7.5 C 7.296875 -6.238281 7.820312 -5.226562 8.875 -4.46875 C 9.9375 -3.707031 11.378906 -3.328125 13.203125 -3.328125 C 14.984375 -3.328125 16.566406 -3.671875 17.953125 -4.359375 C 19.347656 -5.054688 20.457031 -6.015625 21.28125 -7.234375 C 22.113281 -8.460938 22.546875 -9.875 22.578125 -11.46875 L 12.15625 -11.46875 C 10.738281 -11.46875 9.570312 -11.109375 8.65625 -10.390625 C 7.75 -9.679688 7.296875 -8.71875 7.296875 -7.5 Z M 7.296875 -7.5 "/></g></g></g><g fill="#0a608f" fill-opacity="1"><g transform="translate(240.611664, 211.210181)"><g><path d="M 18.65625 0.640625 C 16.632812 0.640625 14.769531 0.253906 13.0625 -0.515625 C 11.363281 -1.296875 9.9375 -2.347656 8.78125 -3.671875 L 8.78125 9.921875 L 4.609375 9.921875 L 4.609375 -25.75 L 8.046875 -25.75 L 8.53125 -21.78125 C 9.6875 -23.238281 11.132812 -24.375 12.875 -25.1875 C 14.613281 -26 16.539062 -26.40625 18.65625 -26.40625 C 21.207031 -26.40625 23.46875 -25.816406 25.4375 -24.640625 C 27.40625 -23.460938 28.953125 -21.863281 30.078125 -19.84375 C 31.203125 -17.832031 31.765625 -15.519531 31.765625 -12.90625 C 31.765625 -10.289062 31.203125 -7.960938 30.078125 -5.921875 C 28.953125 -3.890625 27.40625 -2.285156 25.4375 -1.109375 C 23.46875 0.0546875 21.207031 0.640625 18.65625 0.640625 Z M 8.640625 -12.90625 C 8.640625 -11.050781 9.039062 -9.40625 9.84375 -7.96875 C 10.65625 -6.53125 11.769531 -5.40625 13.1875 -4.59375 C 14.613281 -3.78125 16.253906 -3.375 18.109375 -3.375 C 19.992188 -3.375 21.644531 -3.78125 23.0625 -4.59375 C 24.488281 -5.40625 25.597656 -6.53125 26.390625 -7.96875 C 27.191406 -9.40625 27.59375 -11.050781 27.59375 -12.90625 C 27.59375 -14.757812 27.191406 -16.40625 26.390625 -17.84375 C 25.597656 -19.28125 24.488281 -20.40625 23.0625 -21.21875 C 21.644531 -22.03125 19.992188 -22.4375 18.109375 -22.4375 C 16.253906 -22.4375 14.613281 -22.03125 13.1875 -21.21875 C 11.769531 -20.40625 10.65625 -19.28125 9.84375 -17.84375 C 9.039062 -16.40625 8.640625 -14.757812 8.640625 -12.90625 Z M 8.640625 -12.90625 "/></g></g></g><g fill="#0a608f" fill-opacity="1"><g transform="translate(272.713061, 211.210181)"><g><path d="M 18.65625 0.640625 C 16.632812 0.640625 14.769531 0.253906 13.0625 -0.515625 C 11.363281 -1.296875 9.9375 -2.347656 8.78125 -3.671875 L 8.78125 9.921875 L 4.609375 9.921875 L 4.609375 -25.75 L 8.046875 -25.75 L 8.53125 -21.78125 C 9.6875 -23.238281 11.132812 -24.375 12.875 -25.1875 C 14.613281 -26 16.539062 -26.40625 18.65625 -26.40625 C 21.207031 -26.40625 23.46875 -25.816406 25.4375 -24.640625 C 27.40625 -23.460938 28.953125 -21.863281 30.078125 -19.84375 C 31.203125 -17.832031 31.765625 -15.519531 31.765625 -12.90625 C 31.765625 -10.289062 31.203125 -7.960938 30.078125 -5.921875 C 28.953125 -3.890625 27.40625 -2.285156 25.4375 -1.109375 C 23.46875 0.0546875 21.207031 0.640625 18.65625 0.640625 Z M 8.640625 -12.90625 C 8.640625 -11.050781 9.039062 -9.40625 9.84375 -7.96875 C 10.65625 -6.53125 11.769531 -5.40625 13.1875 -4.59375 C 14.613281 -3.78125 16.253906 -3.375 18.109375 -3.375 C 19.992188 -3.375 21.644531 -3.78125 23.0625 -4.59375 C 24.488281 -5.40625 25.597656 -6.53125 26.390625 -7.96875 C 27.191406 -9.40625 27.59375 -11.050781 27.59375 -12.90625 C 27.59375 -14.757812 27.191406 -16.40625 26.390625 -17.84375 C 25.597656 -19.28125 24.488281 -20.40625 23.0625 -21.21875 C 21.644531 -22.03125 19.992188 -22.4375 18.109375 -22.4375 C 16.253906 -22.4375 14.613281 -22.03125 13.1875 -21.21875 C 11.769531 -20.40625 10.65625 -19.28125 9.84375 -17.84375 C 9.039062 -16.40625 8.640625 -14.757812 8.640625 -12.90625 Z M 8.640625 -12.90625 "/></g></g></g><g fill="#0a608f" fill-opacity="1"><g transform="translate(304.814458, 211.210181)"><g><path d="M 13.046875 0.390625 C 9.941406 0.390625 7.507812 -0.3125 5.75 -1.71875 C 4 -3.125 3.125 -5.03125 3.125 -7.4375 C 3.125 -9.789062 3.929688 -11.660156 5.546875 -13.046875 C 7.171875 -14.441406 9.328125 -15.140625 12.015625 -15.140625 L 22.53125 -15.140625 L 22.53125 -16.078125 C 22.53125 -18.097656 21.898438 -19.675781 20.640625 -20.8125 C 19.390625 -21.957031 17.671875 -22.53125 15.484375 -22.53125 C 13.828125 -22.53125 12.382812 -22.15625 11.15625 -21.40625 C 9.9375 -20.664062 9.113281 -19.664062 8.6875 -18.40625 L 4.46875 -18.40625 C 5.03125 -20.882812 6.296875 -22.835938 8.265625 -24.265625 C 10.234375 -25.691406 12.625 -26.40625 15.4375 -26.40625 C 17.6875 -26.40625 19.65625 -25.984375 21.34375 -25.140625 C 23.03125 -24.296875 24.34375 -23.117188 25.28125 -21.609375 C 26.226562 -20.109375 26.703125 -18.363281 26.703125 -16.375 L 26.703125 0 L 23.28125 0 L 22.828125 -3.578125 C 20.472656 -0.929688 17.210938 0.390625 13.046875 0.390625 Z M 7.296875 -7.5 C 7.296875 -6.238281 7.820312 -5.226562 8.875 -4.46875 C 9.9375 -3.707031 11.378906 -3.328125 13.203125 -3.328125 C 14.984375 -3.328125 16.566406 -3.671875 17.953125 -4.359375 C 19.347656 -5.054688 20.457031 -6.015625 21.28125 -7.234375 C 22.113281 -8.460938 22.546875 -9.875 22.578125 -11.46875 L 12.15625 -11.46875 C 10.738281 -11.46875 9.570312 -11.109375 8.65625 -10.390625 C 7.75 -9.679688 7.296875 -8.71875 7.296875 -7.5 Z M 7.296875 -7.5 "/></g></g></g></svg>